<?xml version="1.0" standalone="no"?>
<!DOCTYPE svg PUBLIC "-//W3C//DTD SVG 20010904//EN"
 "http://www.w3.org/TR/2001/REC-SVG-20010904/DTD/svg10.dtd">
<svg version="1.0" xmlns="http://www.w3.org/2000/svg"
 width="496.000000pt" height="496.000000pt" viewBox="0 0 496.000000 496.000000"
 preserveAspectRatio="xMidYMid meet">
<metadata>
Created by potrace 1.11, written by Peter Selinger 2001-2013
</metadata>
<g transform="translate(0.000000,496.000000) scale(0.100000,-0.100000)"
fill="#000000" stroke="none">
<path d="M1670 4056 c0 -2 8 -10 18 -17 15 -13 16 -12 3 4 -13 16 -21 21 -21
13z"/>
<path d="M1796 3954 c-3 -9 -6 -25 -6 -36 0 -17 2 -18 15 -4 17 16 20 42 6 50
-5 3 -12 -1 -15 -10z"/>
<path d="M1876 3957 c3 -10 9 -15 12 -12 3 3 0 11 -7 18 -10 9 -11 8 -5 -6z"/>
<path d="M1090 3940 c0 -5 5 -10 11 -10 5 0 7 -6 3 -12 -5 -10 -4 -10 6 -1 7
6 9 16 6 22 -9 14 -26 14 -26 1z"/>
<path d="M1210 3946 c0 -2 8 -10 18 -17 15 -13 16 -12 3 4 -13 16 -21 21 -21
13z"/>
<path d="M1617 3929 c4 -13 8 -18 11 -10 2 7 -1 18 -6 23 -8 8 -9 4 -5 -13z"/>
<path d="M1750 3941 c0 -6 4 -13 10 -16 6 -3 7 1 4 9 -7 18 -14 21 -14 7z"/>
<path d="M1860 3928 c0 -29 15 -45 23 -25 3 7 -1 21 -9 32 -13 18 -14 17 -14
-7z"/>
<path d="M1055 3930 c-3 -5 -1 -18 4 -27 6 -10 11 -16 11 -13 7 31 7 41 0 45
-5 3 -11 1 -15 -5z"/>
<path d="M1900 3918 c0 -3 7 -19 15 -34 10 -20 15 -23 15 -11 0 9 7 17 15 17
8 0 15 7 15 16 0 14 -2 13 -17 -1 -16 -16 -17 -16 -30 1 -7 10 -13 15 -13 12z"/>
<path d="M1750 3906 c0 -2 7 -6 15 -10 8 -3 15 -1 15 4 0 6 -7 10 -15 10 -8 0
-15 -2 -15 -4z"/>
<path d="M1823 3895 c0 -8 4 -15 9 -15 4 0 8 7 8 15 0 8 -4 15 -8 15 -5 0 -9
-7 -9 -15z"/>
<path d="M1969 3887 c-8 -18 -8 -30 0 -43 10 -18 11 -18 17 4 5 18 9 20 15 10
5 -7 6 -21 3 -30 -3 -10 -1 -18 5 -18 14 0 14 67 1 75 -6 4 -19 1 -28 -7 -15
-12 -16 -11 -3 5 8 9 11 20 8 24 -4 3 -11 -6 -18 -20z"/>
<path d="M2126 3902 c-2 -4 4 -8 14 -8 10 0 16 4 14 8 -3 4 -9 8 -14 8 -5 0
-11 -4 -14 -8z"/>
<path d="M2040 3864 c-11 -34 -8 -55 7 -40 7 7 15 76 8 76 -2 0 -9 -16 -15
-36z"/>
<path d="M990 3874 c0 -8 5 -12 10 -9 6 4 8 11 5 16 -9 14 -15 11 -15 -7z"/>
<path d="M1061 3870 l-23 -20 23 -9 c29 -10 36 -6 21 12 -9 10 -8 17 0 25 19
19 5 13 -21 -8z"/>
<path d="M950 3869 c0 -4 -9 -5 -20 -2 -11 3 -20 1 -20 -3 0 -10 37 -36 45
-32 2 2 12 -7 20 -19 9 -13 22 -23 28 -23 7 0 4 7 -5 14 -10 7 -18 16 -18 20
0 13 25 0 48 -27 24 -27 24 -28 6 -43 -18 -14 -18 -15 3 -5 18 9 21 8 18 -7
-1 -9 3 -23 9 -31 7 -9 -1 -8 -24 4 -20 11 -57 19 -89 20 -48 1 -56 4 -83 35
-19 22 -25 26 -16 10 25 -41 59 -59 123 -64 33 -3 62 -5 64 -5 2 -1 -3 -9 -10
-18 -10 -14 -10 -16 0 -6 10 8 21 8 45 -2 20 -9 37 -10 46 -5 19 12 92 3 101
-12 4 -6 11 -8 17 -4 5 3 13 -1 16 -10 5 -14 2 -15 -21 -8 -16 4 -38 8 -50 8
-11 1 -19 4 -17 8 8 13 -31 14 -41 1 -8 -10 -15 -10 -37 1 -16 8 -40 14 -55
13 -17 -1 -27 3 -26 9 1 7 -9 14 -23 17 -23 4 -24 3 -8 -14 9 -10 25 -21 36
-25 19 -6 19 -6 1 -21 -10 -8 -13 -12 -8 -9 6 2 17 1 25 -5 12 -7 10 -9 -8 -9
-37 0 -64 19 -57 40 5 16 1 18 -40 15 -25 -1 -48 1 -51 6 -3 5 -15 14 -27 20
l-22 12 23 -25 c28 -31 29 -52 2 -45 -11 3 -18 1 -14 -4 3 -5 -5 -9 -16 -9
-16 0 -20 -4 -16 -16 4 -11 2 -15 -8 -11 -8 3 -22 -1 -33 -8 -10 -9 -13 -14
-5 -15 6 0 12 -4 12 -10 0 -6 -9 -6 -25 0 -17 6 -25 6 -25 -1 0 -6 -5 -7 -10
-4 -21 13 -70 24 -65 14 4 -5 -8 -9 -24 -9 -33 0 -37 -6 -20 -30 9 -13 10 -13
6 1 -5 14 5 16 70 16 58 -1 71 -4 59 -13 -9 -6 -13 -14 -9 -17 3 -4 -2 -7 -13
-8 -12 0 -14 -3 -6 -6 10 -4 5 -11 -15 -25 l-28 -20 27 5 c18 3 29 -1 33 -11
6 -15 -21 -41 -43 -42 -7 0 -10 -4 -7 -10 3 -5 0 -10 -7 -10 -7 -1 1 -7 17
-15 18 -8 23 -14 13 -14 -9 -1 -19 -5 -22 -10 -7 -11 104 -9 122 2 6 5 18 5
25 0 6 -4 19 -6 29 -5 9 2 20 -2 24 -9 4 -7 3 -9 -3 -6 -6 4 -13 1 -16 -6 -3
-8 8 -12 37 -11 53 1 79 14 50 25 -16 7 -17 8 -2 8 10 1 27 18 38 39 11 20 25
44 30 52 6 8 14 27 20 43 5 15 14 27 20 27 14 0 12 -22 -5 -44 -12 -16 -12
-22 -2 -28 9 -6 9 -8 -1 -8 -7 0 -20 -7 -28 -15 -13 -13 -11 -14 18 -9 32 5
32 5 9 -8 -30 -16 -29 -31 1 -40 20 -5 21 -6 3 -7 -16 -1 -17 -3 -6 -10 11 -7
10 -10 -5 -14 -16 -4 -16 -5 4 -6 12 0 22 -6 22 -12 0 -6 -8 -8 -17 -5 -10 3
-31 -1 -47 -9 -33 -18 -39 -19 -31 -5 3 6 -4 10 -16 10 -19 0 -20 -2 -8 -17
13 -15 11 -16 -10 -10 -18 4 -21 3 -12 -6 9 -9 23 -8 58 5 30 11 50 13 53 7 4
-5 15 -7 26 -3 15 5 16 4 4 -5 -8 -6 -23 -8 -32 -5 -12 3 -18 0 -18 -10 0 -12
-5 -14 -24 -6 -19 7 -29 4 -46 -10 -12 -10 -27 -21 -33 -23 -7 -2 -9 -8 -5
-12 4 -4 23 3 43 15 19 12 43 19 52 16 8 -4 22 -1 30 5 7 7 16 9 20 5 3 -3 1
-6 -6 -6 -7 0 -10 -4 -6 -9 7 -12 -59 -26 -74 -16 -7 4 -8 0 -4 -11 5 -14 3
-16 -11 -11 -10 4 -36 -2 -60 -13 -24 -10 -53 -18 -65 -17 -21 1 -21 2 -5 14
10 7 13 13 7 13 -6 0 -16 -7 -23 -15 -11 -13 -10 -18 6 -30 10 -8 14 -15 7
-15 -7 0 -23 11 -37 25 -14 14 -32 25 -39 25 -15 0 -31 27 -28 46 1 7 -5 14
-12 17 -17 7 -71 -4 -60 -12 4 -3 16 -19 25 -36 9 -16 22 -31 30 -33 10 -4 11
-2 1 9 -7 7 -13 20 -13 28 1 13 4 12 16 -4 8 -11 12 -25 10 -32 -3 -6 0 -14 7
-17 7 -2 5 -5 -5 -5 -9 -1 -20 4 -23 9 -3 6 -13 10 -21 10 -10 0 -12 -5 -8
-12 6 -10 4 -10 -7 -2 -22 18 -59 27 -59 15 0 -6 3 -10 8 -10 19 3 30 -2 37
-18 5 -15 4 -16 -6 -5 -7 6 -36 12 -64 11 -34 0 -44 -3 -30 -8 17 -7 16 -9
-10 -15 -20 -5 -25 -10 -16 -15 9 -6 7 -10 -7 -13 -15 -4 -19 -2 -15 8 3 8 1
14 -5 14 -6 0 -9 -8 -8 -17 2 -10 9 -18 16 -18 18 0 25 -25 8 -26 -7 -1 -16
-1 -20 0 -5 0 -8 -4 -8 -10 0 -6 -7 -9 -15 -5 -8 3 -15 1 -15 -5 0 -5 -11 -7
-25 -3 -20 5 -24 3 -21 -13 3 -11 -4 -24 -16 -32 -14 -9 -18 -9 -13 -1 5 9 1
10 -14 5 -46 -14 -90 90 -51 122 12 10 12 12 1 13 -9 0 -11 8 -7 24 3 14 1 26
-5 28 -5 2 -11 12 -13 23 -4 28 -46 30 -90 5 -35 -22 -42 -38 -37 -92 1 -10
-4 -18 -13 -18 -17 0 -21 -20 -7 -35 5 -6 12 -20 16 -32 5 -18 2 -23 -12 -23
-15 0 -16 -2 -3 -10 13 -8 12 -10 -2 -10 -10 0 -18 -5 -18 -11 0 -5 5 -7 10
-4 6 3 10 1 10 -4 0 -6 -12 -11 -27 -11 -16 0 -37 -7 -47 -15 -11 -8 -15 -15
-9 -15 7 0 15 5 18 10 3 6 15 10 27 10 19 0 19 -1 -3 -20 -21 -18 -22 -19 -4
-15 16 5 16 3 -2 -6 -13 -7 -23 -18 -23 -26 0 -7 -7 -13 -15 -13 -9 0 -15 -6
-14 -12 3 -27 -2 -38 -16 -38 -8 0 -15 -4 -15 -8 0 -5 10 -8 21 -8 31 1 34
-18 7 -45 -13 -12 -17 -19 -11 -15 7 4 13 2 13 -4 0 -7 7 -10 17 -6 10 4 5 -6
-12 -22 -30 -27 -31 -30 -30 -119 0 -50 3 -95 7 -99 4 -4 3 -14 -4 -21 -9 -11
-9 -16 0 -22 7 -4 8 -12 2 -21 -14 -22 -12 -78 3 -83 9 -3 9 -7 -2 -20 -15
-19 -1 -23 17 -5 15 15 17 -3 2 -32 -5 -11 -14 -28 -18 -37 -5 -10 -9 -37 -10
-61 -2 -41 -1 -42 21 -32 l22 11 -22 -20 c-25 -21 -34 -52 -10 -33 7 6 31 13
52 15 35 4 37 3 21 -9 -11 -7 -23 -11 -27 -8 -5 3 -6 -2 -3 -10 3 -8 -7 -34
-22 -58 -35 -54 -42 -114 -17 -134 17 -13 17 -15 1 -25 -10 -5 -18 -19 -18
-30 0 -15 4 -18 18 -11 53 26 58 -5 11 -81 -31 -52 -37 -77 -16 -77 8 0 7 -4
-3 -11 -12 -8 -12 -10 5 -8 43 3 50 0 29 -15 -18 -14 -18 -15 -2 -21 22 -9 14
-25 -13 -25 -30 0 -22 -20 9 -21 15 -1 32 0 37 1 6 1 35 -1 65 -5 52 -7 53 -8
30 -20 -24 -13 -23 -13 20 -19 25 -3 74 -8 110 -9 47 -2 59 -6 43 -11 -21 -8
-21 -9 -6 -24 11 -11 36 -17 77 -18 106 -2 114 -3 94 -15 -11 -6 -53 -7 -109
-3 -73 6 -93 11 -102 25 -7 12 -23 19 -42 19 -20 0 -26 -3 -17 -9 11 -7 10
-10 -3 -15 -9 -3 -24 -6 -32 -6 -13 0 -13 3 -3 15 11 13 5 15 -41 13 -36 -1
-43 -3 -21 -5 17 -2 32 -9 32 -15 0 -7 -13 -8 -36 -5 -25 4 -37 2 -41 -9 -3
-7 -13 -14 -22 -15 -53 -3 71 -18 159 -19 58 0 137 -5 175 -10 51 -6 13 -8
-140 -5 -116 2 -205 2 -200 0 6 -2 24 -7 40 -11 l30 -7 -30 -7 c-24 -6 -25 -8
-7 -9 12 0 22 -6 22 -12 0 -8 20 -10 60 -7 33 2 60 1 60 -4 0 -4 -33 -8 -72
-9 -74 0 -146 -17 -83 -18 17 -1 43 -8 60 -17 17 -9 74 -18 137 -23 59 -4 111
-11 115 -14 11 -12 -128 -7 -237 8 -131 18 -130 18 -130 1 0 -9 16 -17 43 -21
62 -11 68 -19 17 -25 -42 -5 -38 -6 45 -18 50 -7 160 -17 245 -22 182 -12 318
-29 325 -40 3 -5 15 -6 28 -3 16 4 19 3 12 -6 -6 -6 -71 -16 -145 -21 -298
-23 -476 -43 -500 -56 -22 -12 -14 -13 80 -14 58 0 166 -5 240 -10 249 -18
493 -30 735 -35 132 -3 377 -10 545 -16 186 -7 377 -8 490 -3 102 5 167 10
145 12 -61 4 -75 12 -45 25 35 15 1057 12 1125 -4 27 -6 73 -18 100 -26 43
-13 150 -16 725 -16 371 0 685 3 698 7 l22 7 0 424 c0 329 -3 424 -12 428 -10
4 -10 6 0 6 9 1 12 126 12 592 0 362 -4 588 -9 584 -16 -10 -22 14 -10 37 12
23 12 23 -10 4 -18 -16 -21 -17 -21 -3 0 12 -7 15 -27 11 l-28 -4 28 25 c34
30 17 33 -24 4 -16 -11 -29 -16 -29 -10 0 5 4 12 9 15 5 3 11 15 14 27 4 15
-4 10 -28 -18 -33 -38 -60 -40 -37 -3 10 16 9 18 -3 14 -21 -9 -19 15 6 56
l21 35 -26 -24 c-14 -14 -26 -21 -26 -16 0 5 -7 0 -15 -11 -19 -26 -19 -4 0
24 15 20 15 21 -1 15 -13 -5 -15 -3 -9 7 6 9 4 11 -4 6 -7 -5 -10 -10 -7 -13
2 -2 -5 -14 -16 -25 -16 -16 -22 -18 -29 -7 -12 19 -11 33 3 47 9 9 9 12 1 12
-7 0 -15 -5 -18 -10 -4 -6 -11 -8 -16 -4 -6 3 -3 12 8 21 17 14 17 14 0 9 -14
-5 -16 -1 -12 22 5 26 5 26 -6 5 -18 -34 -29 -28 -29 15 l-1 37 -14 -25 c-8
-14 -15 -20 -15 -15 0 6 -5 3 -11 -5 -8 -12 -10 -9 -6 13 4 26 4 27 -14 11
-18 -16 -19 -16 -20 12 0 25 -1 26 -9 9 -16 -39 -78 -79 -100 -65 -9 6 -17 5
-21 -2 -6 -9 -12 -8 -23 1 -13 11 -14 17 -4 28 9 11 9 16 -3 24 -8 5 -18 9
-24 9 -5 0 -3 -5 5 -10 13 -8 12 -10 -3 -10 -10 0 -20 7 -23 15 -5 11 -10 13
-19 5 -12 -10 -13 -7 -17 50 -1 29 -2 29 -20 13 -10 -9 -18 -12 -18 -7 0 5
-14 -7 -30 -26 -16 -19 -30 -30 -30 -23 0 7 -7 10 -16 6 -14 -5 -15 -3 -5 15
8 15 8 22 1 22 -6 0 -13 -7 -17 -16 -3 -8 -11 -13 -19 -10 -7 3 -15 0 -18 -7
-2 -7 -5 -5 -5 4 -1 12 -9 15 -30 13 -24 -3 -30 1 -34 19 -3 21 -4 21 -12 2
-14 -34 -29 -36 -42 -7 -8 17 -12 21 -13 10 0 -23 -20 -34 -31 -17 -8 12 -12
11 -23 -4 -13 -16 -14 -16 -20 5 -5 14 -9 18 -13 11 -2 -7 -12 -13 -21 -13
-15 -1 -15 -2 1 -11 9 -5 17 -18 16 -27 0 -14 -2 -13 -9 3 -8 19 -9 18 -9 -4
-1 -20 -3 -22 -17 -10 -10 8 -12 15 -5 17 8 3 8 10 -1 25 l-11 21 -9 -23 c-4
-12 -5 -28 -2 -34 3 -7 -4 -1 -16 13 l-22 25 7 -30 c4 -21 3 -26 -4 -16 -5 8
-17 16 -26 17 -9 1 -23 11 -31 21 -14 17 -15 16 -11 -10 2 -15 0 -30 -6 -34
-5 -3 -8 -2 -4 3 3 5 -1 17 -8 27 -11 16 -13 15 -18 -10 -4 -16 -15 -39 -26
-53 l-20 -25 5 25 c4 20 1 18 -14 -10 -10 -19 -24 -34 -30 -32 -7 1 -12 -2
-12 -8 0 -5 -6 -7 -14 -4 -8 3 -17 0 -21 -5 -3 -6 -10 -9 -15 -6 -5 3 -14 -5
-21 -17 -7 -12 -18 -29 -26 -36 -11 -11 -15 -10 -23 10 -10 21 -10 20 -5 -6 6
-27 5 -28 -11 -15 -11 9 -15 9 -10 2 4 -7 2 -13 -3 -13 -6 0 -11 -7 -11 -16 0
-8 -5 -12 -11 -9 -6 4 -13 -3 -16 -15 -3 -12 -11 -19 -19 -16 -8 3 -14 -4 -16
-17 -2 -12 -9 -21 -16 -19 -6 1 -12 -7 -12 -18 0 -11 -5 -20 -11 -20 -6 0 -8
-7 -5 -16 7 -18 -14 -42 -32 -36 -6 2 -12 -2 -12 -10 0 -10 -3 -9 -10 2 -8 11
-9 7 -4 -15 4 -16 3 -27 -1 -23 -13 12 -33 -35 -22 -49 7 -9 4 -13 -8 -13 -15
0 -16 -2 -4 -16 12 -15 11 -16 -11 -9 l-25 7 25 -22 25 -22 -25 7 c-25 8 -25
7 -7 -13 18 -19 18 -21 -5 -41 -19 -18 -20 -23 -8 -31 12 -8 11 -12 -8 -30
-24 -22 -29 -40 -11 -40 8 0 8 -5 -1 -15 -10 -12 -10 -15 0 -15 9 0 9 -4 2
-12 -9 -11 -28 -13 -88 -9 -6 1 -11 17 -11 37 0 35 1 35 38 30 27 -4 39 -1 43
10 4 10 2 13 -6 8 -6 -4 -28 -6 -50 -6 -37 2 -38 1 -38 -34 0 -43 -22 -42 -31
2 -7 29 -7 29 -9 -6 -1 -19 -4 -27 -7 -17 -2 9 -9 15 -14 12 -5 -4 -9 3 -9 15
0 13 9 24 25 30 22 8 24 13 15 30 -6 12 -9 26 -6 33 2 7 5 4 5 -5 1 -24 40
-44 55 -27 8 9 8 10 -4 4 -12 -6 -13 -5 -2 6 12 13 18 38 6 27 -3 -4 -22 5
-41 18 -20 13 -40 24 -46 24 -5 0 -5 6 2 14 8 10 8 16 -3 25 -11 9 -15 9 -19
-1 -4 -8 -6 -7 -6 5 -1 9 -6 17 -12 17 -6 0 -9 7 -5 15 3 9 0 15 -9 15 -8 0
-15 5 -15 11 0 8 -5 8 -15 -1 -12 -10 -15 -10 -15 1 -1 9 -4 8 -11 -4 -13 -22
-3 -35 13 -19 19 19 30 14 28 -10 -4 -40 -1 -45 40 -72 22 -14 40 -32 40 -39
0 -8 -3 -7 -9 2 -8 12 -12 12 -25 2 -9 -8 -16 -22 -16 -32 0 -11 -7 -19 -16
-19 -13 0 -12 5 5 29 12 16 21 32 21 35 0 3 -16 20 -35 39 -26 26 -32 36 -23
45 7 7 8 12 2 12 -21 0 -33 -23 -23 -44 10 -20 10 -20 -5 -2 -9 10 -13 22 -11
27 3 4 1 10 -4 13 -5 3 -7 22 -4 41 3 20 0 35 -6 35 -13 0 -23 -17 -14 -23 5
-2 3 -2 -4 -1 -6 2 -14 -2 -17 -9 -3 -8 -5 -7 -5 2 -1 8 6 22 15 32 17 18 12
39 -9 39 -8 0 -8 -3 2 -9 8 -5 9 -11 3 -15 -14 -8 -24 8 -17 27 8 20 -40 50
-68 41 -12 -4 -25 -11 -28 -17 -4 -6 -16 -1 -30 12 -13 13 -19 21 -14 20 6 -1
18 1 28 6 14 6 16 10 6 16 -17 10 -49 -8 -50 -29 0 -9 -9 2 -19 26 -18 40 -42
54 -55 32 -9 -15 15 -42 32 -36 8 4 11 1 8 -5 -8 -11 25 -40 37 -33 5 3 8 1 8
-4 0 -5 9 -12 20 -15 11 -3 20 -13 20 -22 0 -10 -5 -14 -12 -9 -10 6 -10 4 0
-7 9 -10 15 -10 24 -1 7 7 17 12 22 12 6 -1 -2 -12 -19 -25 -16 -14 -24 -25
-17 -25 7 0 30 -16 50 -34 37 -35 57 -41 31 -9 -8 9 -9 14 -2 10 6 -4 13 -2
15 5 3 9 6 9 12 0 4 -7 3 -12 -3 -12 -11 0 4 -50 17 -60 20 -14 82 -99 82
-111 0 -8 -16 8 -35 36 -20 27 -41 50 -48 50 -7 0 -13 5 -15 10 -4 15 -64 75
-86 87 -13 7 -16 7 -12 -1 4 -6 0 -11 -9 -11 -10 0 -5 -10 17 -31 20 -18 25
-27 13 -21 -11 5 -27 7 -35 5 -13 -4 -13 -3 0 6 9 7 10 11 3 11 -22 0 -24 -19
-3 -30 25 -13 27 -34 3 -22 -10 5 -31 16 -48 24 -22 12 -34 13 -46 5 -15 -9
-13 -14 16 -43 18 -17 36 -42 40 -55 3 -13 3 -19 -2 -14 -4 6 -20 21 -35 34
-27 24 -27 24 -23 2 2 -11 7 -27 11 -34 4 -6 -2 -4 -13 6 -16 14 -22 15 -25 5
-3 -7 -5 2 -6 19 0 18 -7 42 -15 53 -32 46 -99 110 -115 110 -16 -1 -15 -2 1
-11 9 -6 15 -14 12 -18 -7 -12 32 -44 44 -36 6 3 9 0 5 -8 -3 -8 6 -23 20 -35
33 -25 35 -48 4 -30 -33 19 -47 34 -58 62 -5 15 -13 25 -18 24 -4 -2 -23 13
-41 32 l-34 35 35 -45 c56 -71 78 -113 78 -144 0 -28 -1 -29 -15 -10 -17 22
-20 38 -5 29 6 -3 10 -2 10 4 0 5 -5 13 -11 17 -6 3 -19 20 -30 38 l-20 31 7
-29 c5 -21 4 -27 -5 -22 -6 4 -11 15 -11 25 0 11 -9 29 -20 42 -14 17 -18 19
-14 7 4 -12 1 -18 -7 -18 -9 -1 -6 -7 7 -18 12 -10 24 -27 28 -38 3 -11 20
-35 37 -52 l30 -31 -33 9 c-33 10 -103 70 -81 70 7 0 18 -8 25 -18 7 -10 19
-22 27 -27 8 -4 -4 16 -26 46 -22 30 -50 59 -61 65 -12 6 -21 13 -19 15 1 2
-6 -5 -15 -16 -9 -11 -14 -23 -12 -26 3 -6 -41 -5 -65 0 -2 1 3 9 10 18 8 9 9
14 3 10 -15 -9 -46 28 -73 85 -22 46 -41 69 -41 49 0 -5 6 -12 13 -15 10 -5
10 -7 0 -12 -7 -3 -13 -12 -13 -20 0 -9 4 -13 9 -10 9 6 21 -16 21 -40 0 -12
-4 -12 -20 -4 -11 6 -20 16 -20 23 0 7 -9 18 -20 25 -12 7 -18 17 -15 22 3 6
-1 10 -10 10 -13 0 -15 6 -10 33 l7 32 -18 -24 c-14 -19 -15 -28 -5 -42 7 -12
7 -19 1 -19 -5 0 -10 5 -10 10 0 6 -4 10 -10 10 -5 0 -10 -15 -11 -32 l-1 -33
-10 35 c-5 19 -16 39 -24 43 -17 10 -18 34 -1 40 6 3 -5 3 -25 0 -26 -4 -38
-2 -38 7 0 6 -9 23 -20 37 -25 31 -28 62 -5 43 11 -9 15 -9 15 -1 0 6 -6 14
-14 17 -12 5 -13 11 -4 30 7 15 17 23 25 20 8 -3 11 -1 8 4 -3 6 0 10 8 10 8
0 13 10 13 23 -1 19 4 22 39 23 22 0 46 -3 53 -9 8 -6 12 -6 12 2 0 10 -13 15
-32 12 -10 -1 -9 8 2 34 7 16 9 17 9 3 1 -17 41 -22 41 -6 0 4 5 8 11 8 5 0 7
-5 3 -12 -4 -7 -3 -8 4 -4 9 5 9 13 2 26 -13 24 -13 40 0 40 6 0 10 -8 10 -17
0 -12 7 -7 20 15 l21 33 19 -23 c22 -26 26 -18 8 15 -10 21 -10 21 7 7 17 -14
17 -14 7 7 -17 30 -15 35 7 23 13 -6 18 -18 17 -35 -2 -14 1 -25 5 -25 5 0 9
-9 9 -19 0 -11 5 -23 12 -27 8 -5 9 0 3 17 -13 41 -12 119 2 119 7 0 13 -6 13
-14 0 -8 16 -38 35 -67 27 -39 33 -54 23 -60 -9 -6 -5 -15 16 -34 26 -24 27
-24 21 -4 -5 15 -4 19 4 15 6 -4 15 4 21 18 5 14 15 26 21 26 7 0 2 11 -11 25
-12 13 -27 22 -32 19 -4 -3 -1 -12 7 -20 8 -9 15 -18 15 -21 0 -4 -3 -3 -7 0
-3 4 -12 -1 -19 -11 -12 -15 -13 -15 -9 6 2 12 0 20 -5 17 -11 -7 -41 48 -44
84 -2 14 -9 26 -16 26 -7 0 -15 5 -17 12 -6 17 24 9 49 -14 13 -11 38 -28 56
-39 17 -10 32 -22 32 -27 0 -4 -6 -5 -12 -1 -7 4 -2 -5 12 -18 21 -21 26 -23
34 -10 5 9 4 17 -3 22 -7 4 -11 13 -9 21 2 9 -4 13 -16 11 -12 -2 -16 1 -10 9
4 7 3 10 -4 5 -19 -12 -59 15 -73 50 -16 42 -46 73 -35 36 7 -21 6 -22 -12
-11 -12 7 -19 16 -16 20 2 4 -3 10 -12 13 -23 9 -27 8 -21 -9 4 -8 2 -17 -3
-20 -4 -3 -11 9 -15 26 -4 17 -9 28 -12 25 -7 -6 -34 20 -32 31 5 19 -15 43
-34 43 -11 0 -17 3 -14 6 7 8 -43 54 -58 54 -14 0 17 20 32 20 15 0 89 -79 86
-91 -4 -12 14 -11 22 1 10 16 28 12 21 -5 -3 -8 -1 -15 4 -15 6 0 10 6 10 13
0 21 -17 40 -29 33 -6 -4 -11 -2 -11 4 0 14 67 6 104 -13 28 -15 28 -15 6 -27
-15 -8 -25 -8 -34 -1 -11 9 -14 6 -13 -14 0 -14 4 -28 10 -32 6 -4 8 0 4 11
-6 15 -3 17 23 11 17 -4 36 -2 43 3 7 5 23 12 37 15 20 5 26 13 28 37 2 23 -2
30 -15 30 -14 0 -15 2 -5 9 11 7 11 9 -2 14 -9 4 -16 2 -16 -3 0 -6 -5 -10
-11 -10 -5 0 -7 4 -4 10 3 6 -1 7 -9 4 -9 -3 -16 -1 -16 5 0 6 -11 10 -25 9
-27 -3 -32 -17 -12 -37 10 -11 6 -13 -22 -7 -18 3 -45 6 -60 6 -16 0 -21 3
-14 8 7 4 9 13 4 20 -5 9 -12 8 -27 -4 -10 -8 -12 -12 -4 -8 8 4 12 4 8 -1 -4
-4 -2 -15 5 -23 10 -13 9 -14 -10 -3 -19 10 -28 32 -25 62 1 3 -17 4 -39 2
-21 -2 -39 0 -39 5 0 5 -12 7 -27 5 -22 -4 -25 -2 -13 6 8 6 25 11 36 11 12 0
28 8 35 18 12 15 12 16 -2 4 -13 -10 -19 -9 -30 4 -11 14 -16 12 -41 -17 -27
-30 -35 -27 -30 12 1 4 -19 12 -43 18 -40 10 -71 31 -46 31 6 0 11 5 11 11 0
6 -9 9 -20 6 -11 -3 -23 -1 -26 4 -3 6 -15 7 -26 3 -14 -4 -18 -2 -14 5 4 7 1
9 -7 5 -8 -3 -18 0 -22 5 -3 6 -12 8 -18 4 -7 -5 -23 -8 -36 -8 -13 0 -26 -7
-28 -15 -4 -13 -3 -13 6 0 6 8 11 10 11 4 0 -5 -10 -21 -22 -34 -13 -14 -22
-28 -21 -32 2 -4 -5 -4 -14 -1 -11 4 -14 3 -9 -5 9 -15 -6 -16 -22 -2 -9 7 -9
7 -2 -2 14 -17 12 -28 -4 -22 -10 4 -15 -1 -15 -13 1 -34 -8 -57 -22 -61 -11
-3 -12 -2 -1 6 11 7 10 11 -4 16 -10 4 -15 4 -11 0 4 -4 1 -14 -6 -22 -8 -10
-8 -13 -1 -9 7 4 14 1 17 -7 8 -20 -33 -26 -127 -19 -59 5 -77 3 -72 -5 4 -7
13 -12 21 -12 8 0 17 -5 21 -12 5 -8 2 -9 -9 -5 -10 3 -17 2 -17 -3 0 -6 -7
-10 -15 -10 -8 0 -15 -5 -15 -10 0 -12 -37 -9 -57 3 -8 5 -13 4 -13 -2 0 -6
-8 -11 -17 -11 -15 0 -15 1 2 13 10 8 15 19 11 25 -7 12 5 16 33 12 12 -1 13
1 2 14 -7 8 -20 12 -28 9 -10 -4 -14 -2 -10 4 4 6 2 13 -3 15 -6 2 -12 13 -13
25 -1 22 -17 33 -72 51 l-30 10 35 3 c19 1 41 2 48 2 28 -1 9 16 -36 32 -32
12 -48 24 -49 36 -1 12 3 16 14 12 12 -5 11 -1 -3 15 -25 29 -31 28 -29 -8 1
-16 0 -30 -1 -30 -2 0 -15 12 -30 28 -21 22 -24 23 -15 5 6 -12 16 -25 21 -28
6 -3 10 -11 10 -17 0 -6 -8 -4 -19 6 -10 9 -25 14 -33 11 -23 -9 -44 24 -47
73 -1 9 -8 11 -21 7 -13 -4 -22 -1 -25 8 -6 14 -35 20 -35 6z m137 -115 c-3
-4 -2 -16 4 -28 10 -20 9 -20 -5 -2 -14 17 -13 36 1 36 4 0 3 -3 0 -6z m133
-24 c12 -8 12 -10 -5 -10 -11 0 -27 5 -35 10 -12 8 -12 10 5 10 11 0 27 -5 35
-10z m817 -56 c-3 -3 -12 -4 -19 -1 -8 3 -5 6 6 6 11 1 17 -2 13 -5z m-892
-35 c4 -5 16 -10 28 -10 16 -1 17 -3 5 -6 -9 -2 -26 1 -37 7 -14 7 -21 7 -21
0 0 -5 -8 -10 -17 -10 -15 0 -16 -2 -3 -9 8 -6 18 -7 22 -5 4 3 8 0 8 -5 0 -6
-9 -11 -20 -11 -34 0 -22 -20 13 -21 17 -1 43 -4 57 -8 l25 -7 -23 -8 c-14 -5
-29 -3 -38 4 -9 8 -31 11 -60 7 -25 -2 -43 -2 -39 1 3 3 -3 14 -12 25 -10 11
-13 18 -7 14 6 -3 25 6 42 21 31 28 67 38 77 21z m100 -31 c-9 -5 -22 -5 -32
1 -10 6 -14 11 -9 11 5 0 3 7 -5 16 -11 13 -7 13 24 -2 30 -14 34 -20 22 -26z
m-342 7 c23 -32 17 -32 -13 0 -13 14 -19 25 -14 25 5 0 17 -12 27 -25z m-38 5
c3 -5 1 -10 -4 -10 -6 0 -11 5 -11 10 0 6 2 10 4 10 3 0 8 -4 11 -10z m1458 3
c-7 -2 -19 -2 -25 0 -7 3 -2 5 12 5 14 0 19 -2 13 -5z m-1137 -25 c5 -7 3 -8
-6 -3 -7 4 -16 2 -21 -6 -4 -7 -11 -10 -16 -6 -4 5 -1 12 7 17 20 13 27 12 36
-2z m284 -12 c0 -3 -4 -8 -10 -11 -5 -3 -10 -1 -10 4 0 6 5 11 10 11 6 0 10
-2 10 -4z m-240 -23 c0 -11 -3 -14 -8 -7 -4 6 -14 14 -22 17 -10 4 -8 6 8 6
15 1 22 -5 22 -16z m-553 1 c-3 -3 -12 -4 -19 -1 -8 3 -5 6 6 6 11 1 17 -2 13
-5z m208 -3 c-19 -8 -19 -8 3 -15 22 -7 31 -26 12 -26 -5 0 -10 3 -10 8 0 12
-40 33 -51 26 -8 -4 -7 -9 2 -15 7 -4 11 -10 8 -13 -10 -10 -32 13 -26 28 4
11 18 16 44 15 29 0 33 -2 18 -8z m50 -19 c-3 -3 -11 0 -18 7 -9 10 -8 11 6 5
10 -3 15 -9 12 -12z m195 -13 c4 -6 18 -7 35 -3 21 5 27 4 23 -7 -5 -15 -58
-21 -58 -7 0 4 -6 8 -14 8 -8 0 -17 6 -20 13 -4 8 -8 9 -11 1 -3 -6 -18 -9
-33 -6 -24 5 -25 6 -7 13 24 10 77 3 85 -12z m-310 -9 c8 -5 12 -11 10 -14 -3
-2 -14 2 -24 10 -22 15 -10 19 14 4z m485 1 c3 -6 -4 -15 -15 -21 -16 -8 -20
-8 -18 2 2 7 8 16 13 20 13 10 13 10 20 -1z m53 -23 c-7 -13 -11 -26 -10 -30
1 -5 -5 -8 -14 -8 -8 0 -12 5 -9 10 3 6 -2 10 -12 11 -16 0 -16 1 2 9 11 5 16
9 10 9 -14 2 17 21 33 21 10 0 10 -4 0 -22z m112 8 c0 -2 -7 -7 -16 -10 -8 -3
-12 -2 -9 4 6 10 25 14 25 6z m-315 -54 c-6 -7 -35 18 -35 31 0 5 9 2 20 -8
11 -10 18 -20 15 -23z m245 34 c0 -3 -4 -8 -10 -11 -5 -3 -10 -1 -10 4 0 6 5
11 10 11 6 0 10 -2 10 -4z m-190 -16 c-8 -5 -19 -10 -25 -10 -5 0 -3 5 5 10 8
5 20 10 25 10 6 0 3 -5 -5 -10z m93 -7 c-7 -2 -19 -2 -25 0 -7 3 -2 5 12 5 14
0 19 -2 13 -5z m-94 -20 c-4 -22 3 -32 24 -36 15 -4 12 -5 -8 -4 -18 1 -29 7
-27 15 1 6 -8 12 -20 13 -22 0 -22 1 -3 9 26 11 35 12 34 3z m148 -8 c0 -27
-82 -85 -119 -85 -31 -1 -32 -1 -14 -15 11 -8 15 -15 10 -15 -6 0 -15 5 -22
12 -9 9 -18 9 -37 0 -35 -16 -31 -6 5 13 19 10 28 20 23 28 -4 8 -2 8 9 -1 14
-11 23 -10 55 7 35 19 36 21 16 27 -18 5 -20 9 -10 18 27 28 84 35 84 11z
m846 -5 c-3 -12 -8 -19 -11 -16 -5 6 5 36 12 36 2 0 2 -9 -1 -20z m-1093 -30
c-8 -5 -22 -9 -30 -9 -10 0 -8 3 5 9 27 12 43 12 25 0z m214 -51 c-10 -4 -14
-8 -7 -8 7 -1 10 -8 6 -18 -4 -11 -3 -14 5 -9 7 4 12 2 12 -6 0 -9 3 -9 10 2
11 17 13 10 4 -14 -3 -9 -10 -14 -14 -11 -10 6 -124 -104 -128 -123 -3 -15 10
-9 43 17 19 15 19 15 5 -3 -14 -18 -13 -19 3 -13 9 3 17 2 17 -4 0 -6 4 -8 9
-4 5 3 7 20 4 38 -4 26 0 40 21 63 15 17 25 23 26 15 0 -11 5 -10 20 4 11 10
20 13 20 8 0 -15 -27 -36 -38 -29 -13 8 -35 -21 -38 -47 -2 -12 0 -16 2 -9 3
6 12 12 20 12 8 0 14 4 14 9 0 5 7 12 16 15 10 4 13 2 8 -6 -5 -8 -1 -9 12 -5
18 7 18 7 0 -8 -11 -8 -25 -15 -32 -15 -17 0 -55 -55 -59 -86 -2 -24 -2 -24
19 -7 15 13 13 8 -8 -22 l-28 -40 36 37 c49 51 46 30 -3 -24 -47 -51 -151
-185 -151 -195 0 -4 12 4 26 18 l26 24 -28 -47 c-16 -25 -31 -46 -34 -46 -22
1 -32 -6 -46 -33 -8 -17 -11 -28 -6 -25 6 3 12 2 14 -4 3 -11 83 89 100 125 6
13 16 22 22 20 12 -4 82 72 74 80 -8 8 -58 -35 -58 -50 0 -8 -5 -17 -12 -21
-8 -5 -9 -2 -4 11 5 15 4 16 -9 5 -9 -8 -15 -8 -15 -2 0 6 13 21 28 34 15 13
34 35 42 51 7 15 20 26 29 25 9 -2 16 4 16 12 0 16 48 95 64 104 5 3 8 17 6
31 -1 14 1 25 6 25 4 0 12 12 17 28 l10 27 1 -25 c1 -14 -6 -36 -15 -48 -18
-26 -7 -30 12 -4 12 16 12 16 9 -3 -2 -11 -4 -23 -4 -27 -1 -4 -7 -5 -15 -2
-7 3 -16 -2 -20 -11 -4 -11 -2 -14 7 -8 12 8 17 9 37 12 6 0 10 9 10 19 0 11
9 27 20 37 20 18 21 18 14 -1 -6 -16 -4 -16 19 5 15 14 27 22 27 18 0 -11 -43
-47 -50 -42 -4 2 -7 -2 -7 -11 0 -10 7 -12 21 -8 21 7 21 7 1 -15 l-19 -22 26
10 c23 9 26 8 21 -6 -4 -11 -3 -14 5 -9 17 10 15 -9 -3 -24 -8 -7 -13 -16 -10
-20 2 -4 -4 -15 -15 -25 -21 -19 -28 -41 -9 -29 8 4 9 -1 4 -17 -13 -42 20 0
39 51 22 57 45 92 55 86 4 -3 13 6 19 19 6 13 8 26 3 29 -11 7 -51 -5 -51 -15
0 -11 23 -7 32 6 5 6 8 5 8 -2 0 -14 -36 -36 -50 -31 -21 7 17 51 55 64 54 19
61 17 34 -6 -28 -23 -13 -27 19 -5 20 15 21 15 15 -2 -6 -16 -5 -16 10 -4 10
8 20 11 24 7 10 -10 -4 -18 -30 -18 -19 0 -24 -6 -24 -24 0 -13 2 -23 6 -22
18 2 31 -3 31 -12 0 -5 -11 -10 -25 -10 -14 0 -25 -4 -25 -10 0 -5 10 -8 23
-6 12 3 25 5 30 5 4 1 7 9 8 19 0 10 3 12 6 4 2 -6 8 -10 12 -8 4 3 13 1 20
-4 11 -6 11 -11 -1 -29 -8 -11 -18 -18 -23 -13 -5 4 -5 2 -2 -5 4 -6 15 -10
25 -8 9 2 21 4 25 4 5 1 6 5 3 9 -3 5 1 9 9 9 8 0 15 -4 15 -9 0 -4 -4 -8 -10
-8 -5 0 -10 -13 -10 -30 0 -16 5 -30 10 -30 18 0 11 -17 -9 -23 -14 -3 -17 0
-14 13 3 10 0 21 -6 24 -6 4 -11 0 -11 -9 0 -8 -6 -18 -14 -21 -9 -3 -12 -13
-9 -22 4 -13 2 -12 -10 3 -8 10 -12 25 -9 33 4 11 6 11 14 0 8 -10 9 -9 5 3
-3 9 0 22 6 28 6 6 7 11 1 11 -5 0 -18 -15 -29 -32 -16 -27 -20 -29 -23 -15
-4 18 -4 18 -18 0 -13 -16 -14 -15 -10 20 2 20 0 37 -5 37 -5 0 -9 8 -10 18 0
13 -2 13 -9 -4 -13 -33 -35 -44 -26 -13 5 13 8 32 9 42 1 9 7 17 14 17 7 0 13
4 13 9 0 5 -9 7 -21 4 -13 -4 -18 -11 -14 -21 3 -8 -6 -29 -20 -48 -14 -18
-25 -37 -25 -43 0 -16 18 -23 26 -10 5 8 3 9 -6 4 -9 -5 -11 -4 -6 3 15 24 28
12 23 -20 -3 -18 -3 -27 0 -20 5 13 29 16 37 4 2 -4 0 -14 -6 -22 -8 -12 -9
-11 -4 5 5 18 4 17 -14 -4 -20 -24 -28 -67 -10 -56 6 3 10 15 10 26 0 11 4 18
9 14 5 -3 16 4 24 15 8 11 24 22 35 25 19 3 20 1 10 -26 -5 -16 -13 -27 -17
-24 -4 2 -23 -22 -42 -55 -42 -72 -50 -71 -13 1 17 35 21 49 11 40 -9 -7 -19
-22 -23 -33 -5 -16 -8 -18 -15 -7 -7 11 -9 9 -7 -6 2 -35 -2 -55 -12 -55 -5 0
-10 8 -11 18 0 14 -2 14 -8 -3 -5 -11 -6 -24 -3 -29 3 -5 0 -6 -6 -2 -7 4 -12
2 -12 -3 0 -6 4 -11 9 -11 5 0 0 -11 -12 -24 -24 -27 -34 -27 -22 1 5 10 9 23
10 28 0 6 6 23 13 38 7 16 12 36 12 45 0 9 7 29 14 45 13 23 13 31 0 55 -7 15
-14 24 -14 20 0 -3 -3 -14 -7 -24 -4 -12 -3 -15 6 -10 13 8 6 -33 -10 -66 -5
-9 -9 -28 -9 -43 0 -17 -4 -24 -12 -19 -8 5 -9 2 -5 -9 3 -9 2 -19 -4 -22 -5
-4 -7 -10 -4 -15 7 -12 -12 -50 -25 -50 -6 0 -6 10 1 26 12 33 3 44 -16 18
-20 -28 -75 -181 -75 -212 0 -14 -2 -23 -5 -20 -8 8 -11 188 -4 188 4 0 9 14
11 30 3 17 2 30 -2 30 -10 0 -78 -212 -85 -265 -8 -66 -15 -98 -20 -93 -2 2 0
37 6 78 5 41 7 82 3 92 -4 15 -9 12 -35 -15 -19 -21 -27 -25 -22 -13 5 15 3
17 -8 11 -12 -8 -12 -6 0 8 7 9 17 15 21 12 5 -3 12 5 16 17 3 13 11 29 17 37
26 32 14 44 -14 13 -16 -18 -29 -30 -29 -27 0 13 24 50 36 58 8 4 14 19 14 32
0 13 5 27 10 30 6 3 10 11 10 18 0 22 -45 -57 -83 -143 -42 -98 -67 -189 -68
-251 l-1 -44 -9 35 c-11 45 13 160 52 248 16 36 27 67 24 70 -3 3 1 12 8 21
10 14 10 14 -5 3 -10 -8 -14 -20 -11 -29 4 -10 2 -14 -4 -10 -6 4 -20 -4 -31
-18 -11 -14 -23 -25 -27 -25 -7 0 25 60 40 75 6 5 18 19 25 29 12 16 12 18 1
12 -9 -6 -12 -5 -9 5 3 8 11 13 17 11 6 -1 11 2 11 7 0 5 22 31 49 57 26 27
51 60 54 73 l6 23 -25 -23 c-25 -24 -33 -17 -11 11 6 9 0 3 -15 -14 -30 -32
-35 -46 -17 -46 5 0 8 4 4 9 -3 5 -1 12 4 15 5 4 12 2 15 -3 6 -9 -39 -63 -46
-55 -8 7 -68 -74 -68 -90 0 -9 -4 -16 -8 -16 -10 0 -37 -54 -63 -125 -22 -57
-23 -69 -9 -60 6 4 8 10 5 15 -3 4 2 13 10 20 9 7 13 21 10 31 -3 9 -1 20 4
24 7 4 9 -1 5 -12 -5 -17 -5 -17 9 0 8 9 20 17 26 17 6 0 3 -10 -9 -22 -11
-12 -18 -29 -15 -37 2 -9 0 -23 -6 -31 -8 -11 -9 -9 -4 10 6 24 6 24 -19 -5
-15 -16 -32 -41 -38 -55 -16 -37 -12 -198 6 -270 18 -68 15 -97 -3 -33 -48
168 -31 355 47 508 14 29 19 45 10 38 -8 -7 -23 -30 -34 -50 -10 -21 -25 -44
-33 -52 -10 -11 -11 -16 -2 -19 8 -3 5 -9 -8 -19 -12 -8 -21 -20 -21 -27 0 -8
-7 -19 -15 -26 -18 -15 -20 -34 -2 -24 6 4 0 -4 -15 -19 -16 -14 -28 -34 -28
-43 0 -10 -3 -15 -6 -11 -7 6 37 121 66 172 10 18 16 35 14 38 -3 3 2 22 10
42 9 20 13 41 10 47 -3 5 3 19 13 31 24 27 83 121 83 132 0 4 -10 -4 -21 -19
-12 -15 -27 -25 -35 -22 -22 8 -194 -192 -194 -226 0 -5 9 -4 20 2 11 6 20 14
20 19 0 4 22 41 49 82 51 76 101 131 101 111 0 -6 -5 -14 -10 -17 -6 -4 -8
-11 -4 -16 3 -5 0 -8 -7 -7 -6 2 -14 -3 -17 -11 -3 -9 0 -11 8 -6 8 5 11 4 6
-3 -4 -6 -12 -9 -19 -7 -7 3 -23 -12 -36 -33 -44 -66 -91 -154 -91 -167 0 -7
-9 -23 -20 -36 l-21 -24 17 40 c9 22 18 45 20 51 3 6 -2 11 -11 11 -9 0 -29
-28 -51 -71 -36 -74 -37 -58 -1 22 12 26 21 49 22 52 0 6 31 50 62 90 19 23
20 29 8 34 -10 3 -29 -15 -59 -57 -58 -83 -94 -158 -110 -237 -13 -60 -14 -62
-15 -24 -1 23 6 61 14 84 8 23 12 47 8 53 -3 5 -1 7 5 4 6 -4 24 18 42 50 38
69 88 133 146 189 45 44 112 95 101 77 -11 -17 20 -23 34 -7 7 8 8 14 3 13
-28 -5 -24 3 9 21 21 11 42 18 46 16 4 -3 23 10 41 29 19 19 30 35 25 35 -5 0
-4 5 3 12 16 16 15 33 -1 19 -8 -6 -18 -7 -22 -3 -5 4 -5 2 -1 -5 8 -14 -17
-67 -36 -79 -7 -5 -5 4 5 19 20 31 23 54 5 40 -7 -6 -22 -9 -33 -7 -13 2 -38
-17 -79 -59 -52 -54 -70 -64 -28 -14 23 26 -1 21 -26 -6 -12 -13 -19 -27 -15
-32 5 -4 2 -4 -6 0 -11 6 -13 4 -8 -9 5 -14 3 -17 -8 -12 -18 7 -76 -67 -139
-178 -30 -52 -43 -69 -42 -52 0 13 4 22 9 19 4 -2 7 -1 8 4 3 31 14 52 65 125
32 46 66 89 76 96 12 9 17 21 13 32 -3 10 -1 21 4 25 7 3 8 0 5 -9 -3 -9 -2
-16 3 -16 15 0 54 46 46 54 -5 4 -2 6 6 4 8 -2 15 7 17 21 l4 25 -23 -22 c-13
-12 -26 -20 -29 -16 -8 7 -61 -20 -77 -40 -7 -9 -17 -14 -21 -11 -16 10 -158
-95 -221 -162 -52 -56 -131 -176 -129 -198 1 -20 -1 -25 -11 -19 -6 3 -10 -1
-9 -12 1 -11 1 -39 0 -64 l-3 -45 -6 35 c-7 35 -7 34 -20 -25 -8 -33 -14 -98
-14 -145 -1 -47 -3 -70 -5 -52 -2 17 -7 32 -12 32 -4 0 -7 12 -5 28 2 15 6 52
10 82 7 58 60 230 74 240 4 3 15 19 24 35 8 17 38 56 65 87 28 32 56 65 64 75
35 48 177 166 248 208 44 26 80 51 80 57 0 6 6 8 14 5 14 -6 82 30 74 39 -3 2
-17 0 -31 -5 -17 -7 -28 -7 -32 -1 -4 6 5 10 19 10 14 0 28 5 31 10 4 6 10 8
14 5 12 -7 73 36 79 55 3 8 -9 2 -26 -14 -17 -15 -35 -25 -41 -22 -6 4 -25 -1
-43 -10 -18 -10 -51 -18 -73 -20 -22 -1 -50 -5 -62 -9 -17 -5 -23 -3 -23 8 0
10 16 17 58 22 79 9 143 26 137 35 -3 5 -1 11 4 15 6 3 8 -3 6 -14 -2 -13 15
-2 53 35 58 55 76 66 65 39 -3 -9 -8 -14 -10 -11 -7 7 -42 -37 -37 -46 6 -9
64 44 64 59 0 7 5 13 10 13 6 0 10 5 10 11 0 7 -10 9 -25 6 -24 -4 -25 -3 -9
14 9 10 22 16 28 12 6 -3 8 -3 4 2 -13 14 11 45 29 38 15 -6 14 -7 -3 -14z
m-244 -9 c0 -5 -4 -10 -10 -10 -5 0 -10 5 -10 10 0 6 5 10 10 10 6 0 10 -4 10
-10z m60 6 c0 -9 -40 -13 -46 -5 -3 5 6 9 20 9 14 0 26 -2 26 -4z m2835 -26
c3 -5 1 -10 -4 -10 -6 0 -11 5 -11 10 0 6 2 10 4 10 3 0 8 -4 11 -10z m-2775
-15 c-7 -8 -20 -15 -28 -15 -13 0 -12 3 4 15 25 19 40 19 24 0z m246 -31 c-10
-43 -11 -45 -16 -18 -3 16 -2 31 2 32 4 2 8 10 8 18 0 8 4 14 8 14 5 0 4 -21
-2 -46z m51 15 c-3 -11 -1 -19 5 -19 5 0 6 -4 3 -10 -13 -21 -24 -9 -22 24 1
19 6 32 10 29 5 -3 7 -14 4 -24z m2214 8 c-1 -12 -15 -9 -19 4 -3 6 1 10 8 8
6 -3 11 -8 11 -12z m-2561 -7 c0 -5 -5 -10 -11 -10 -5 0 -7 5 -4 10 3 6 8 10
11 10 2 0 4 -4 4 -10z m335 -61 c5 -7 4 -10 -2 -6 -6 4 -16 0 -23 -8 -7 -8
-17 -15 -23 -15 -7 0 -7 4 1 12 7 7 12 24 12 38 0 37 13 47 21 16 4 -13 10
-30 14 -37z m50 42 c-3 -6 2 -14 11 -19 12 -7 13 -11 4 -17 -16 -10 -34 10
-27 29 4 9 9 16 12 16 4 0 4 -4 0 -9z m2979 -16 c-3 -7 -24 -15 -47 -17 -40
-4 -57 4 -57 27 0 6 3 5 8 -1 8 -13 84 -6 76 7 -3 5 2 6 10 3 8 -3 12 -12 10
-19z m-3394 -50 c-7 -8 -20 -15 -29 -15 -11 0 -8 5 9 14 33 19 35 19 20 1z
m223 -45 c-28 -32 -33 -35 -33 -20 0 11 40 50 52 50 4 0 -4 -13 -19 -30z
m-429 8 c-5 -8 -2 -9 12 -4 10 4 44 9 74 11 l55 3 -55 -10 c-30 -5 -63 -14
-72 -19 -10 -5 -23 -9 -30 -9 -24 0 -97 -33 -92 -41 3 -5 -2 -6 -10 -3 -20 8
-88 -25 -79 -39 3 -6 1 -7 -5 -3 -7 4 -17 4 -23 1 -19 -13 19 -42 49 -38 16 2
3 -8 -35 -26 -80 -38 -155 -90 -148 -102 3 -5 0 -6 -8 -4 -20 8 -104 -70 -137
-129 -17 -28 -30 -44 -30 -36 -1 12 -3 11 -11 -3 -5 -9 -7 -22 -3 -29 4 -7 3
-8 -4 -4 -13 8 -36 -30 -27 -44 4 -6 1 -9 -6 -8 -8 2 -27 -37 -50 -107 -43
-125 -59 -208 -38 -187 7 6 17 12 23 12 5 0 1 -6 -9 -14 -11 -8 -23 -12 -27
-10 -5 3 -8 -1 -8 -9 0 -10 7 -14 23 -11 l22 5 -22 -12 c-14 -8 -23 -21 -23
-36 0 -14 4 -21 10 -18 6 3 10 1 10 -4 0 -6 -7 -11 -15 -11 -8 0 -15 -4 -15
-10 0 -5 -6 -10 -12 -10 -7 0 -26 -16 -41 -35 -15 -19 -33 -35 -39 -35 -9 0
-9 3 0 12 7 7 8 16 2 23 -6 7 -2 17 11 29 20 16 21 16 17 -1 -2 -10 -10 -17
-17 -15 -7 1 -10 -2 -6 -7 10 -17 35 0 35 24 0 18 4 22 19 18 14 -3 20 2 24
23 4 24 3 26 -7 12 -16 -22 -71 -37 -64 -17 2 7 15 16 29 20 14 4 17 7 7 8
-23 1 -31 18 -12 25 10 4 13 2 8 -7 -4 -6 2 -4 13 6 11 9 22 15 25 12 3 -3 13
32 23 77 35 163 96 300 172 388 22 25 53 65 70 90 17 25 42 56 57 69 14 13 23
28 20 33 -3 5 -2 8 3 7 24 -4 57 2 46 9 -9 5 -6 12 10 21 21 13 21 13 7 -4
-14 -17 -13 -18 3 -12 9 3 17 2 17 -3 0 -4 18 -1 39 8 37 16 38 18 23 33 -16
16 -19 16 -42 1 -23 -15 -24 -14 -11 2 8 9 34 29 58 43 24 13 43 27 43 31 0 3
-8 15 -17 26 -14 16 -12 16 9 -3 26 -23 55 -21 42 2 -5 9 -4 9 5 1 9 -8 25 -4
61 13 27 13 52 28 55 33 3 6 11 10 16 10 6 0 7 -5 3 -12z m813 -18 c3 -24 3
-24 -11 -5 -12 16 -17 18 -27 8 -7 -7 -18 -13 -23 -13 -6 1 0 10 13 21 29 24
43 21 48 -11z m-1131 -38 c-4 -3 -14 2 -24 12 -16 18 -16 18 6 6 13 -6 21 -14
18 -18z m414 3 c-8 -9 -9 -15 -2 -15 6 0 14 5 17 10 4 6 11 7 17 4 17 -11 -20
-26 -43 -19 -16 5 -20 3 -17 -6 3 -8 16 -13 29 -11 13 1 -3 -10 -36 -26 -40
-19 -62 -25 -67 -18 -7 10 -12 2 -5 -8 1 -3 -16 -17 -38 -32 -22 -14 -43 -32
-47 -38 -4 -6 -8 -7 -8 -3 0 24 -135 -102 -179 -168 -15 -22 -38 -66 -51 -98
-12 -32 -24 -56 -26 -54 -7 7 39 112 70 157 43 64 123 142 188 184 31 20 63
45 72 57 8 12 19 18 25 14 15 -9 48 3 55 20 5 15 -18 11 -41 -8 -7 -5 -13 -6
-13 -1 0 9 88 71 104 73 5 1 3 -6 -4 -14z m-451 -27 c12 -3 12 -6 -2 -11 -9
-3 -17 -2 -17 4 0 6 -4 7 -10 4 -6 -3 -7 1 -3 10 3 9 9 12 12 7 3 -5 13 -11
20 -14z m292 5 c13 -16 12 -17 -3 -4 -10 7 -18 15 -18 17 0 8 8 3 21 -13z m34
7 c3 -5 2 -10 -4 -10 -5 0 -13 5 -16 10 -3 6 -2 10 4 10 5 0 13 -4 16 -10z
m3515 0 c8 -5 11 -10 5 -10 -5 0 -17 5 -25 10 -8 5 -10 10 -5 10 6 0 17 -5 25
-10z m-3473 -6 c-3 -3 -12 -4 -19 -1 -8 3 -5 6 6 6 11 1 17 -2 13 -5z m939
-41 c-10 -10 -19 5 -10 18 6 11 8 11 12 0 2 -7 1 -15 -2 -18z m-966 13 c0 -2
-28 -13 -61 -25 -61 -20 -62 -20 -87 -1 -13 11 -21 20 -16 20 5 0 17 -7 27
-14 14 -11 24 -11 52 -2 19 7 38 15 41 19 8 7 44 10 44 3z m716 -43 c-5 -39
-5 -40 -15 -24 -6 9 -5 21 2 33 15 24 16 23 13 -9z m-1126 8 c0 -5 -7 -12 -16
-15 -14 -5 -15 -4 -4 9 14 17 20 19 20 6z m15 -39 c-3 -3 -11 0 -18 7 -9 10
-8 11 6 5 10 -3 15 -9 12 -12z m160 8 c-3 -5 -11 -10 -16 -10 -6 0 -7 5 -4 10
3 6 11 10 16 10 6 0 7 -4 4 -10z m2100 -10 c-3 -5 -12 -10 -18 -10 -7 0 -6 4
3 10 19 12 23 12 15 0z m-2240 -40 c-3 -5 -11 -10 -16 -10 -6 0 -7 5 -4 10 3
6 11 10 16 10 6 0 7 -4 4 -10z m3795 -11 c0 -4 12 -10 26 -13 15 -4 24 -9 22
-12 -6 -5 -69 15 -82 27 -5 4 1 7 13 6 11 -1 21 -4 21 -8z m-2246 -28 c3 -5
-2 -15 -12 -22 -15 -12 -16 -12 -5 2 7 9 10 19 6 22 -3 4 -4 7 0 7 3 0 8 -4
11 -9z m-1751 -18 c3 -5 -6 -9 -19 -9 -13 -1 -21 2 -18 7 6 11 31 12 37 2z
m977 -3 c0 -5 -5 -10 -11 -10 -5 0 -7 5 -4 10 3 6 8 10 11 10 2 0 4 -4 4 -10z
m-930 -25 c0 -2 -10 -9 -22 -15 -22 -11 -22 -10 -4 4 21 17 26 19 26 11z m-41
-71 c-14 -18 -62 -24 -78 -11 -12 10 -9 13 15 18 46 9 74 6 63 -7z m795 -9
c-9 -14 -19 -23 -22 -20 -5 4 26 45 35 45 2 0 -4 -11 -13 -25z m1541 15 c3 -5
2 -10 -4 -10 -6 0 -8 -8 -4 -17 5 -15 3 -14 -10 2 -9 11 -17 23 -17 28 0 11
28 9 35 -3z m-1114 -55 c-9 -30 -9 -30 -8 8 0 21 4 34 8 30 5 -5 5 -22 0 -38z
m379 -5 c-10 -6 14 -19 44 -24 5 0 12 -9 15 -19 4 -10 11 -18 16 -17 5 1 11
-3 13 -10 2 -6 -2 -9 -10 -8 -8 2 -12 -5 -11 -19 3 -29 -1 -29 -40 1 -50 36
-64 42 -41 15 31 -36 34 -45 15 -45 -13 0 -17 6 -13 19 2 10 1 17 -4 16 -22
-4 -33 2 -28 15 3 7 -2 16 -11 20 -10 3 -15 13 -12 20 3 8 0 20 -8 26 -10 8
-14 8 -18 -2 -4 -9 -6 -9 -6 -1 -2 21 20 25 34 7 7 -11 11 -22 9 -25 -2 -4 3
-12 11 -19 12 -10 15 -9 15 4 0 15 3 14 22 -4 12 -11 23 -18 26 -16 6 6 -17
46 -27 46 -5 0 -8 11 -8 25 0 21 2 23 14 14 10 -9 11 -14 3 -19z m195 -21 c16
-19 13 -18 -20 6 -56 41 -65 50 -30 32 17 -8 39 -25 50 -38z m-1815 37 c0 -2
-9 -6 -20 -9 -11 -3 -20 -1 -20 4 0 5 9 9 20 9 11 0 20 -2 20 -4z m1740 -27
c0 -6 5 -7 12 -3 7 4 8 3 4 -5 -4 -6 0 -23 9 -37 33 -50 9 -31 -27 22 -27 40
-32 52 -18 44 11 -6 20 -15 20 -21z m667 9 c-3 -8 -6 -5 -6 6 -1 11 2 17 5 13
3 -3 4 -12 1 -19z m-537 -8 c5 -8 6 -18 4 -22 -3 -5 2 -11 11 -14 8 -4 21 -16
27 -28 8 -17 4 -15 -20 8 -17 16 -30 32 -29 37 1 4 -7 14 -18 23 -18 13 -18
15 -2 12 10 -1 22 -9 27 -16z m158 -16 c-4 -3 -12 5 -18 18 -12 22 -12 22 6 6
10 -10 15 -20 12 -24z m440 11 c-3 -3 -9 2 -12 12 -6 14 -5 15 5 6 7 -7 10
-15 7 -18z m-2231 -15 c-1 -16 -5 -30 -9 -30 -9 0 -10 8 -2 38 9 31 14 28 11
-8z m1152 -2 c0 -31 -1 -31 -10 -10 -5 13 -7 28 -3 33 10 16 14 9 13 -23z
m539 10 c10 -12 10 -18 1 -24 -7 -4 -9 -3 -5 4 3 6 2 13 -4 17 -5 3 -10 11
-10 17 0 6 1 9 3 7 1 -2 8 -11 15 -21z m-760 -29 c-6 -16 -12 -28 -15 -26 -7
7 8 57 18 57 4 0 3 -14 -3 -31z m251 19 c-3 -25 1 -38 12 -38 8 0 8 4 0 14
-16 19 1 29 34 20 26 -6 35 -24 13 -24 -7 0 2 -8 20 -17 22 -11 29 -19 21 -24
-7 -4 -18 -5 -24 -3 -7 3 -15 -2 -19 -11 -3 -9 -2 -14 2 -11 4 2 16 -2 26 -9
17 -13 15 -14 -17 -12 -20 2 -39 5 -42 9 -4 3 -19 3 -33 -1 -15 -5 -36 -5 -47
0 -11 4 -15 8 -8 8 8 1 10 8 6 19 -6 15 -5 15 10 3 9 -7 14 -18 10 -24 -3 -6
-1 -7 5 -3 7 4 12 14 12 22 0 10 8 13 28 9 25 -5 25 -5 5 6 -23 12 -35 42 -26
65 6 17 14 18 12 2z m998 -10 c-3 -8 -6 -5 -6 6 -1 11 2 17 5 13 3 -3 4 -12 1
-19z m133 18 c0 -3 -4 -8 -10 -11 -5 -3 -10 -1 -10 4 0 6 5 11 10 11 6 0 10
-2 10 -4z m1448 -41 c-3 -3 -9 2 -12 12 -6 14 -5 15 5 6 7 -7 10 -15 7 -18z
m-4221 -18 c-8 -12 -30 -31 -48 -42 l-34 -20 38 38 c20 21 37 42 37 48 0 6 5
7 11 4 7 -5 6 -14 -4 -28z m1242 -31 c-9 -8 -10 -5 -5 14 3 14 6 32 7 40 1 8
4 2 6 -14 3 -16 -1 -34 -8 -40z m187 36 c-18 -16 -18 -16 -6 6 6 13 14 21 18
18 3 -4 -2 -14 -12 -24z m74 7 c-7 -11 -14 -18 -17 -15 -3 3 0 12 7 21 18 21
23 19 10 -6z m27 -11 c-3 -8 -6 -5 -6 6 -1 11 2 17 5 13 3 -3 4 -12 1 -19z
m238 12 c3 -5 -1 -10 -9 -10 -9 0 -16 5 -16 10 0 6 4 10 9 10 6 0 13 -4 16
-10z m1125 6 c0 -3 -4 -8 -10 -11 -5 -3 -10 -1 -10 4 0 6 5 11 10 11 6 0 10
-2 10 -4z m-863 -21 c0 -8 -4 -15 -9 -15 -10 0 -11 14 -1 23 9 10 10 9 10 -8z
m-73 -18 c10 -9 15 -17 12 -17 -12 0 -56 24 -56 31 0 12 26 4 44 -14z m-587
-9 c-3 -8 -6 -5 -6 6 -1 11 2 17 5 13 3 -3 4 -12 1 -19z m429 -5 c-7 -7 -26 7
-26 19 0 6 6 6 15 -2 9 -7 13 -15 11 -17z m-289 2 c0 -8 -4 -12 -9 -9 -4 3 -8
9 -8 15 0 5 4 9 8 9 5 0 9 -7 9 -15z m-628 -26 c-22 -14 -33 -10 -19 6 7 8 17
12 22 9 6 -4 5 -10 -3 -15z m916 1 c39 -26 25 -26 -17 0 -18 11 -28 20 -23 20
6 0 24 -9 40 -20z m-1815 -5 c-7 -8 -18 -15 -24 -15 -6 0 -2 7 8 15 25 19 32
19 16 0z m1186 -22 c-3 -16 -13 -50 -21 -78 l-15 -50 5 45 c6 45 25 110 33
110 3 0 2 -12 -2 -27z m614 7 c8 -5 11 -10 5 -10 -5 0 -17 5 -25 10 -8 5 -10
10 -5 10 6 0 17 -5 25 -10z m1284 4 c9 -3 16 -15 16 -25 0 -18 -1 -19 -25 -3
-32 21 -25 41 9 28z m-2211 -34 c-5 -19 -23 -39 -23 -25 0 9 20 45 24 45 2 0
2 -9 -1 -20z m89 -22 c-7 -7 -12 -8 -12 -2 0 14 12 26 19 19 2 -3 -1 -11 -7
-17z m-962 -2 c0 -2 -8 -10 -17 -17 -16 -13 -17 -12 -4 4 13 16 21 21 21 13z
m1277 -18 c-3 -8 -6 -5 -6 6 -1 11 2 17 5 13 3 -3 4 -12 1 -19z m-927 -18 c0
-5 -2 -10 -4 -10 -3 0 -8 5 -11 10 -3 6 -1 10 4 10 6 0 11 -4 11 -10z m-300
-10 c0 -5 -7 -7 -15 -4 -8 4 -15 8 -15 10 0 2 7 4 15 4 8 0 15 -4 15 -10z
m2437 4 c-3 -3 -12 -4 -19 -1 -8 3 -5 6 6 6 11 1 17 -2 13 -5z m-1743 -43 c-4
-17 -9 -30 -11 -27 -3 2 -2 19 2 36 9 41 17 33 9 -9z m2486 35 c0 -3 -4 -8
-10 -11 -5 -3 -10 -1 -10 4 0 6 5 11 10 11 6 0 10 -2 10 -4z m-1210 -26 c0 -5
-4 -10 -10 -10 -5 0 -10 5 -10 10 0 6 5 10 10 10 6 0 10 -4 10 -10z m-1910 -5
c0 -2 -10 -9 -22 -15 -22 -11 -22 -10 -4 4 21 17 26 19 26 11z m1450 -5 c8 -5
11 -10 5 -10 -5 0 -17 5 -25 10 -8 5 -10 10 -5 10 6 0 17 -5 25 -10z m-413
-42 c-3 -7 -5 -2 -5 12 0 14 2 19 5 13 2 -7 2 -19 0 -25z m1318 22 c-3 -5 -12
-10 -18 -10 -7 0 -6 4 3 10 19 12 23 12 15 0z m-1995 -47 c0 -56 -6 -54 -14 5
-3 24 -1 42 4 42 6 0 10 -21 10 -47z m1864 -5 c-3 -4 -12 -8 -20 -8 -8 0 -13
4 -10 8 3 5 12 9 20 9 8 0 13 -4 10 -9z m-1636 -88 l-1 -55 -8 45 c-4 25 -8
59 -8 75 0 26 2 27 9 10 5 -11 8 -45 8 -75z m2474 58 c-7 -7 -12 -8 -12 -2 0
14 12 26 19 19 2 -3 -1 -11 -7 -17z m-496 -13 c-11 -8 -22 -12 -25 -9 -6 6 19
24 34 24 6 -1 1 -7 -9 -15z m54 11 c0 -3 -4 -8 -10 -11 -5 -3 -10 -1 -10 4 0
6 5 11 10 11 6 0 10 -2 10 -4z m-2246 -55 c3 -22 9 -48 13 -58 3 -10 3 -15 -1
-12 -11 11 -35 109 -26 109 4 0 10 -18 14 -39z m1914 9 c-21 -29 -42 -38 -52
-22 -6 11 5 26 29 40 37 21 47 14 23 -18z m762 6 c0 -3 -4 -8 -10 -11 -5 -3
-10 -1 -10 4 0 6 5 11 10 11 6 0 10 -2 10 -4z m510 -6 c0 -5 -4 -10 -10 -10
-5 0 -10 5 -10 10 0 6 5 10 10 10 6 0 10 -4 10 -10z m-1362 -20 c-7 -11 -16
-20 -21 -20 -4 0 -3 9 3 20 6 11 15 20 20 20 6 0 5 -9 -2 -20z m568 5 c-8 -8
-17 -15 -20 -15 -3 0 -3 7 0 15 4 8 13 15 21 15 12 0 12 -2 -1 -15z m-49 -1
c-3 -3 -12 -4 -19 -1 -8 3 -5 6 6 6 11 1 17 -2 13 -5z m-2537 -18 c0 -2 -7 -7
-16 -10 -8 -3 -12 -2 -9 4 6 10 25 14 25 6z m-240 -10 c0 -2 -7 -7 -16 -10 -8
-3 -12 -2 -9 4 6 10 25 14 25 6z m357 -28 c-3 -7 -5 -2 -5 12 0 14 2 19 5 13
2 -7 2 -19 0 -25z m-352 2 c-3 -5 -11 -10 -16 -10 -6 0 -7 5 -4 10 3 6 11 10
16 10 6 0 7 -4 4 -10z m160 1 c5 -9 -45 -51 -62 -51 -4 0 7 10 25 22 25 15 30
23 20 29 -9 6 -9 9 -1 9 6 0 14 -4 18 -9z m1040 -24 c-9 -5 -19 -6 -22 -3 -3
3 -15 -1 -27 -9 -11 -8 -27 -15 -36 -15 -8 1 -3 7 13 16 15 8 27 19 27 24 0
13 33 18 48 6 11 -8 10 -11 -3 -19z m1632 17 c-3 -3 -12 -4 -19 -1 -8 3 -5 6
6 6 11 1 17 -2 13 -5z m-2560 -10 c-3 -3 -12 -4 -19 -1 -8 3 -5 6 6 6 11 1 17
-2 13 -5z m-57 -24 c-24 -15 -36 -11 -14 4 10 8 21 12 24 10 2 -3 -2 -9 -10
-14z m140 10 c0 -5 -9 -14 -20 -20 -24 -13 -26 -7 -4 14 18 18 24 20 24 6z
m33 -10 c3 -11 1 -20 -4 -20 -5 0 -9 9 -9 20 0 11 2 20 4 20 2 0 6 -9 9 -20z
m-133 -14 c0 -8 -6 -17 -12 -19 -10 -4 -10 -6 -1 -6 6 -1 15 4 18 9 3 6 11 10
16 10 6 0 4 -7 -4 -15 -10 -9 -31 -14 -60 -12 -49 2 -49 7 -2 31 37 20 45 20
45 2z m210 10 c0 -2 -9 -6 -20 -9 -11 -3 -20 -1 -20 4 0 5 9 9 20 9 11 0 20
-2 20 -4z m1745 -6 c-3 -5 -12 -10 -18 -10 -7 0 -6 4 3 10 19 12 23 12 15 0z
m-1532 -40 c3 -11 2 -18 -3 -15 -4 3 -10 14 -13 25 -3 11 -2 18 3 15 4 -3 10
-14 13 -25z m514 16 c-3 -7 0 -19 6 -25 8 -8 8 -11 -1 -11 -7 0 -12 5 -12 10
0 6 -5 10 -11 10 -6 0 -8 -7 -5 -15 9 -25 -34 -37 -58 -16 -12 9 -16 11 -12 3
7 -11 4 -12 -12 -3 -54 29 -28 56 55 59 44 2 54 0 50 -12z m-1037 -14 c0 -4
-10 -13 -22 -21 -23 -14 -23 -14 -4 8 20 22 26 25 26 13z m177 2 c-3 -3 -12
-4 -19 -1 -8 3 -5 6 6 6 11 1 17 -2 13 -5z m-337 -8 c0 -2 -8 -10 -17 -17 -16
-13 -17 -12 -4 4 13 16 21 21 21 13z m440 -26 c0 -15 -26 -18 -43 -5 -13 10
-15 14 -5 17 17 6 48 -2 48 -12z m-400 -5 c-7 -9 -15 -13 -17 -11 -7 7 7 26
19 26 6 0 6 -6 -2 -15z m210 11 c0 -2 -7 -6 -15 -10 -8 -3 -15 -1 -15 4 0 6 7
10 15 10 8 0 15 -2 15 -4z m50 0 c0 -2 -7 -9 -15 -16 -13 -11 -14 -10 -9 4 5
14 24 23 24 12z m-90 -10 c0 -2 -7 -6 -15 -10 -8 -3 -15 -1 -15 4 0 6 7 10 15
10 8 0 15 -2 15 -4z m130 0 c0 -2 -7 -7 -16 -10 -8 -3 -12 -2 -9 4 6 10 25 14
25 6z m-320 -46 c-33 -26 -49 -26 -19 0 13 10 29 19 34 19 6 1 -1 -8 -15 -19z
m736 6 c12 3 23 -2 32 -16 11 -18 10 -20 -8 -20 -11 0 -20 -4 -20 -10 0 -5 5
-10 10 -10 6 0 10 -4 10 -9 0 -14 -89 32 -90 46 0 7 7 10 15 7 8 -4 15 -10 15
-15 0 -5 5 -9 12 -9 6 0 4 7 -5 18 -20 22 -23 39 -4 24 7 -6 22 -9 33 -6z
m-677 1 c-2 -1 -13 -9 -24 -17 -19 -14 -19 -14 -6 3 7 9 18 17 24 17 6 0 8 -1
6 -3z m2841 -27 c0 -5 -7 -7 -15 -4 -8 4 -15 8 -15 10 0 2 7 4 15 4 8 0 15 -4
15 -10z m-640 -45 c0 -8 -7 -15 -15 -15 -26 0 -18 20 13 29 1 1 2 -6 2 -14z
m2385 -26 c10 -16 3 -16 -35 -3 l-35 13 32 0 c17 1 35 -4 38 -10z m-4040 -49
c3 -5 3 -15 -1 -21 -4 -8 -9 -7 -15 2 -5 8 -9 10 -9 4 0 -5 4 -17 9 -24 6 -9
6 -22 0 -33 -13 -24 -28 -23 -22 2 3 11 0 20 -6 20 -16 0 -13 21 6 42 18 20
29 23 38 8z m35 0 c0 -5 -5 -10 -11 -10 -5 0 -7 5 -4 10 3 6 8 10 11 10 2 0 4
-4 4 -10z m3730 -10 c0 -5 -7 -7 -15 -4 -8 4 -12 10 -9 15 6 11 24 2 24 -11z
m-3666 -61 c-26 -29 -38 -23 -15 7 12 15 22 34 22 43 1 9 4 6 6 -7 3 -14 -3
-32 -13 -43z m-384 47 c0 -2 -9 -6 -20 -9 -11 -3 -18 -1 -14 4 5 9 34 13 34 5z
m1240 -17 c0 -6 -4 -7 -10 -4 -5 3 -10 11 -10 16 0 6 5 7 10 4 6 -3 10 -11 10
-16z m350 -20 c0 -6 -4 -7 -10 -4 -5 3 -10 11 -10 16 0 6 5 7 10 4 6 -3 10
-11 10 -16z m215 12 c3 -5 1 -12 -5 -16 -5 -3 -10 1 -10 9 0 18 6 21 15 7z
m-1379 -49 c-14 -14 -17 -14 -14 -2 3 17 20 31 27 24 3 -2 -3 -12 -13 -22z
m1424 18 c0 -5 -6 -10 -14 -10 -8 0 -17 -6 -19 -12 -3 -7 -6 -3 -6 10 -1 16 5
22 19 22 11 0 20 -4 20 -10z m2094 -32 c11 -10 15 -18 8 -18 -6 0 -14 5 -17
10 -4 6 -21 17 -38 25 l-32 14 30 -6 c16 -3 38 -15 49 -25z m-3673 -11 c-10
-9 -11 -8 -5 6 3 10 9 15 12 12 3 -3 0 -11 -7 -18z m-594 7 c-3 -3 -12 -4 -19
-1 -8 3 -5 6 6 6 11 1 17 -2 13 -5z m444 -21 c-8 -15 -10 -15 -11 -2 0 17 10
32 18 25 2 -3 -1 -13 -7 -23z m-75 -31 c-10 -11 -16 -12 -16 -4 0 7 5 12 10
12 6 0 10 8 11 18 0 11 2 13 6 4 3 -8 -2 -21 -11 -30z m3969 15 c15 -4 14 -5
-7 -6 -21 -1 -28 4 -28 17 0 11 3 13 8 6 4 -7 16 -14 27 -17z m405 19 c0 -2
-7 -7 -16 -10 -8 -3 -12 -2 -9 4 6 10 25 14 25 6z m-2020 -20 c0 -2 -8 -10
-17 -17 -16 -13 -17 -12 -4 4 13 16 21 21 21 13z m1553 -7 c12 -1 0 -5 -28
-10 -27 -5 -68 -6 -90 -2 l-40 8 55 6 c30 3 61 4 68 2 8 -2 23 -4 35 -4z
m-3969 -30 c-25 -27 -38 -23 -17 5 10 13 22 22 26 19 5 -3 1 -14 -9 -24z m128
9 c-7 -7 -12 -8 -12 -2 0 14 12 26 19 19 2 -3 -1 -11 -7 -17z m51 0 c-13 -12
-25 -19 -29 -16 -9 9 18 37 36 38 10 0 8 -6 -7 -22z m-578 -7 c-3 -6 -11 -8
-17 -5 -6 4 -5 9 3 15 16 10 23 4 14 -10z m160 -111 c-28 -12 -37 -12 -30 0 3
6 16 10 28 9 21 0 21 -1 2 -9z m359 -10 c-7 -7 -29 -7 -65 -1 l-54 9 64 1 c44
1 62 -2 55 -9z m933 -56 c-3 -3 -12 -4 -19 -1 -8 3 -5 6 6 6 11 1 17 -2 13 -5z
m233 -10 c0 -14 -3 -14 -15 -4 -8 7 -15 14 -15 16 0 2 7 4 15 4 8 0 15 -7 15
-16z m-973 0 c-3 -3 -12 -4 -19 -1 -8 3 -5 6 6 6 11 1 17 -2 13 -5z m93 -14
c20 -6 21 -8 5 -8 -11 0 -31 4 -45 8 -20 6 -21 8 -5 8 11 0 31 -4 45 -8z m84
-5 c-4 -8 -12 -15 -20 -15 -8 0 -11 6 -8 15 4 8 12 15 20 15 8 0 11 -6 8 -15z
m476 5 c-8 -5 -19 -10 -25 -10 -5 0 -3 5 5 10 8 5 20 10 25 10 6 0 3 -5 -5
-10z m-465 -48 c22 -4 -52 -7 -165 -7 -113 -1 -182 2 -155 6 71 8 272 9 320 1z
m173 -19 c-10 -2 -28 -2 -40 0 -13 2 -5 4 17 4 22 1 32 -1 23 -4z m-392 -12
c-3 -5 -15 -7 -26 -4 -28 7 -25 13 6 13 14 0 23 -4 20 -9z m179 -20 c40 -9 40
-9 -15 -9 -30 0 -64 3 -75 8 -16 7 -13 9 15 9 19 0 53 -4 75 -8z m698 2 c-13
-2 -33 -2 -45 0 -13 2 -3 4 22 4 25 0 35 -2 23 -4z m-768 -33 c27 -7 27 -8 5
-8 -14 0 -38 4 -55 8 -27 7 -27 8 -5 8 14 0 39 -4 55 -8z m268 3 c-7 -2 -21
-2 -30 0 -10 3 -4 5 12 5 17 0 24 -2 18 -5z m-387 -13 c113 -20 113 -23 6 -34
-97 -11 -276 -6 -289 8 -12 12 3 15 107 24 58 5 108 10 111 11 3 0 32 -4 65
-9z m2129 -14 l50 -14 -86 -1 c-102 -1 -181 8 -173 20 8 14 154 10 209 -5z
m-1006 -20 c-2 -2 -53 -6 -114 -8 -60 -3 -90 -2 -65 2 48 7 186 13 179 6z
m1399 -12 c86 -18 -34 -25 -163 -9 -11 1 -26 3 -32 4 -7 0 -13 5 -13 11 0 11
152 7 208 -6z m-2625 -81 c-7 -2 -21 -2 -30 0 -10 3 -4 5 12 5 17 0 24 -2 18
-5z m822 -133 c-3 -5 -30 -10 -60 -10 -30 0 -57 5 -60 10 -4 6 18 10 60 10 42
0 64 -4 60 -10z m400 -38 c17 -3 38 -10 48 -17 17 -12 17 -13 0 -20 -30 -11
-126 -16 -158 -7 l-29 8 39 27 c23 16 46 24 55 21 8 -4 29 -9 45 -12z m3053
-39 c2 -9 -6 -13 -25 -12 -15 0 -22 3 -15 6 6 2 9 9 6 15 -4 6 1 8 11 6 10 -1
20 -9 23 -15z m-2775 -10 c-7 -2 -19 -2 -25 0 -7 3 -2 5 12 5 14 0 19 -2 13
-5z"/>
<path d="M1057 3599 c-18 -10 -15 -29 5 -29 6 0 8 3 5 7 -4 3 -2 12 4 20 13
15 10 16 -14 2z"/>
<path d="M1290 3421 c0 -11 48 -12 55 -2 3 6 -8 9 -25 9 -16 -1 -30 -4 -30 -7z"/>
<path d="M1616 3161 c-4 -5 -2 -12 3 -15 5 -4 12 -2 15 3 4 5 2 12 -3 15 -5 4
-12 2 -15 -3z"/>
<path d="M1175 3140 c-3 -5 -3 -10 2 -10 4 -1 -8 -9 -27 -19 -33 -18 -34 -19
-8 -18 14 1 24 4 22 6 -2 2 5 10 16 18 21 15 27 33 11 33 -6 0 -13 -4 -16 -10z"/>
<path d="M1223 3129 c-29 -20 -50 -49 -34 -49 6 0 15 9 21 20 12 23 37 27 37
6 0 -8 -5 -14 -11 -13 -5 1 -10 -4 -11 -11 0 -7 -18 -28 -40 -47 -34 -30 -36
-34 -14 -26 15 6 30 7 35 3 4 -4 4 -2 1 4 -4 7 5 19 19 28 23 16 43 49 50 87
4 21 -19 20 -53 -2z"/>
<path d="M1478 3103 c-26 -29 -58 -93 -48 -93 6 0 14 8 17 18 4 9 17 34 30 55
25 40 25 47 1 20z"/>
<path d="M1356 3068 c-11 -18 -28 -44 -40 -57 l-21 -24 23 12 c12 6 22 16 22
21 0 5 11 21 25 36 25 27 32 44 17 44 -4 0 -16 -15 -26 -32z"/>
<path d="M1705 3090 c3 -5 8 -10 11 -10 2 0 4 5 4 10 0 6 -5 10 -11 10 -5 0
-7 -4 -4 -10z"/>
<path d="M1666 3074 c-4 -10 -1 -14 6 -12 15 5 23 28 10 28 -5 0 -13 -7 -16
-16z"/>
<path d="M1065 3063 c-16 -10 -36 -18 -43 -19 -32 -6 -153 -87 -212 -144 -36
-34 -50 -51 -32 -38 86 59 118 77 130 73 7 -3 10 0 7 5 -3 6 -2 10 4 10 5 0
24 16 43 36 18 19 42 40 53 45 11 6 4 -4 -15 -21 -41 -36 -34 -38 23 -8 66 35
83 33 50 -5 -21 -23 -12 -21 40 12 20 12 37 28 37 34 0 6 3 8 6 4 4 -3 19 0
35 9 31 16 41 30 12 17 -10 -5 -27 -8 -38 -8 -11 0 -22 -2 -25 -6 -3 -3 -20
-9 -39 -12 l-33 -7 23 20 c29 24 15 25 -26 3z"/>
<path d="M1393 3065 c-3 -9 -3 -18 -1 -21 3 -3 8 4 11 16 6 23 -1 27 -10 5z"/>
<path d="M1381 3014 c0 -11 3 -14 6 -6 3 7 2 16 -1 19 -3 4 -6 -2 -5 -13z"/>
<path d="M1352 2985 c4 -4 3 -16 -3 -26 -5 -11 -7 -19 -5 -19 3 0 10 9 16 19
7 15 7 22 -2 27 -7 4 -10 4 -6 -1z"/>
<path d="M1070 2960 c-8 -5 -12 -12 -9 -15 4 -3 12 1 19 10 14 17 11 19 -10 5z"/>
<path d="M1406 2939 c-8 -19 -24 -43 -35 -53 -12 -11 -21 -24 -21 -30 1 -14
46 40 65 78 8 16 13 31 10 34 -3 3 -11 -10 -19 -29z"/>
<path d="M1343 2912 c-11 -15 -24 -42 -28 -60 -3 -18 -11 -32 -16 -32 -5 0 -9
-8 -9 -17 0 -15 2 -14 15 3 13 18 14 18 8 -6 -3 -14 -2 -22 2 -18 5 5 9 20 10
35 3 40 8 57 21 68 10 8 26 55 20 55 -1 0 -12 -13 -23 -28z"/>
<path d="M1432 2928 c-14 -18 -27 -82 -14 -74 5 3 13 22 16 41 5 22 11 33 18
29 7 -4 8 -3 4 4 -9 15 -11 15 -24 0z"/>
<path d="M1486 2905 c-9 -26 -7 -32 5 -12 6 10 9 21 6 23 -2 3 -7 -2 -11 -11z"/>
<path d="M1541 2884 c0 -11 3 -14 6 -6 3 7 2 16 -1 19 -3 4 -6 -2 -5 -13z"/>
<path d="M999 2820 c-36 -33 -57 -59 -49 -60 9 0 39 27 68 60 29 33 51 60 49
60 -2 0 -33 -27 -68 -60z"/>
<path d="M1439 2854 c-5 -15 -8 -29 -5 -31 2 -2 8 10 14 26 13 38 5 41 -9 5z"/>
<path d="M1401 2824 c0 -11 3 -14 6 -6 3 7 2 16 -1 19 -3 4 -6 -2 -5 -13z"/>
<path d="M1232 2770 c-13 -16 -18 -30 -13 -30 6 0 17 14 26 30 9 17 14 30 12
30 -2 0 -13 -13 -25 -30z"/>
<path d="M1401 2793 c4 -21 -2 -44 -10 -39 -5 3 -13 -17 -18 -45 -13 -61 -3
-53 25 23 13 35 17 60 11 63 -5 4 -9 3 -8 -2z"/>
<path d="M1275 2738 c-4 -9 -2 -25 5 -35 9 -16 10 -15 4 6 -4 15 -2 21 4 17 6
-3 14 -1 18 5 4 7 3 9 -4 5 -5 -3 -12 0 -15 6 -3 9 -7 8 -12 -4z"/>
<path d="M1060 2700 c-28 -56 -25 -60 10 -12 33 45 35 52 20 52 -5 0 -19 -18
-30 -40z"/>
<path d="M590 2963 c-31 -6 -42 -15 -82 -67 -25 -32 -27 -36 -7 -20 13 12 48
36 77 54 48 29 63 42 45 39 -5 -1 -19 -4 -33 -6z"/>
<path d="M1256 2127 c3 -10 9 -15 12 -12 3 3 0 11 -7 18 -10 9 -11 8 -5 -6z"/>
<path d="M1265 3859 c6 -8 4 -11 -7 -7 -8 4 -20 3 -27 -1 -7 -5 8 -8 33 -8 26
0 45 1 44 2 -2 1 -14 8 -27 15 -19 10 -22 10 -16 -1z"/>
<path d="M2110 3855 c-7 -9 -18 -14 -24 -12 -10 3 -36 -35 -36 -55 0 -5 7 -8
16 -6 10 2 18 -5 20 -15 1 -10 9 -24 16 -30 8 -7 23 -25 33 -42 10 -16 20 -25
22 -19 2 5 28 9 58 7 31 -1 53 2 50 6 -3 5 1 12 7 14 10 4 9 8 -2 16 -13 10
-13 11 0 11 11 1 10 5 -6 18 -11 10 -20 25 -18 35 1 9 -1 15 -6 12 -4 -3 -10
2 -14 10 -9 24 -26 17 -22 -7 3 -13 5 -27 5 -33 1 -5 6 -3 11 5 6 9 10 10 10
3 0 -6 -4 -15 -10 -18 -15 -9 -12 -25 5 -25 8 0 15 -6 15 -14 0 -8 -11 -13
-26 -13 -17 0 -24 4 -20 13 4 11 -1 10 -20 -2 -13 -9 -27 -14 -31 -11 -3 4 3
10 13 14 37 13 47 53 14 53 -11 0 -20 5 -20 11 0 5 5 7 12 3 7 -4 8 -3 4 5 -4
6 -3 18 4 26 13 16 -1 27 -20 15 -21 -13 -44 8 -29 26 6 8 9 14 6 14 -2 0 -10
-7 -17 -15z m-3 -40 c-4 -8 -12 -15 -19 -14 -10 0 -10 2 0 6 6 2 12 12 12 21
0 8 3 13 6 9 4 -3 4 -13 1 -22z"/>
<path d="M2196 3851 c-4 -7 -5 -15 -2 -18 9 -9 19 4 14 18 -4 11 -6 11 -12 0z"/>
<path d="M1510 3837 c0 -15 27 -43 34 -36 3 2 -4 15 -15 28 -13 16 -19 18 -19
8z"/>
<path d="M1420 3836 c0 -2 8 -10 18 -17 15 -13 16 -12 3 4 -13 16 -21 21 -21
13z"/>
<path d="M1490 3815 c0 -18 -16 -20 -23 -2 -3 7 -6 7 -6 1 -1 -6 8 -19 19 -29
20 -18 21 -18 14 0 -5 12 -4 16 3 12 7 -5 9 0 6 13 -6 24 -13 26 -13 5z"/>
<path d="M1233 3805 c7 -7 14 -10 17 -6 3 3 9 9 13 12 4 4 -3 7 -17 7 -19 0
-22 -3 -13 -13z"/>
<path d="M1200 3801 c0 -5 7 -11 15 -15 8 -3 15 -1 15 3 0 5 -7 11 -15 15 -8
3 -15 1 -15 -3z"/>
<path d="M1667 3789 c-8 -28 -3 -34 11 -16 6 7 7 19 3 26 -6 9 -10 6 -14 -10z"/>
<path d="M2020 3799 c0 -5 5 -7 10 -4 6 3 10 8 10 11 0 2 -4 4 -10 4 -5 0 -10
-5 -10 -11z"/>
<path d="M1995 3790 c-3 -5 -1 -10 4 -10 6 0 11 5 11 10 0 6 -2 10 -4 10 -3 0
-8 -4 -11 -10z"/>
<path d="M2012 3768 c-8 -10 -4 -13 14 -14 15 -1 24 4 24 12 0 17 -24 18 -38
2z"/>
<path d="M980 3760 c8 -5 20 -10 25 -10 6 0 3 5 -5 10 -8 5 -19 10 -25 10 -5
0 -3 -5 5 -10z"/>
<path d="M1245 3760 c4 -6 11 -8 16 -5 14 9 11 15 -7 15 -8 0 -12 -5 -9 -10z"/>
<path d="M1381 3751 c16 -25 25 -27 33 -6 3 8 1 15 -3 15 -5 0 -17 3 -26 6
-15 6 -15 4 -4 -15z"/>
<path d="M1437 3762 c-4 -4 3 -16 14 -25 24 -21 30 -21 22 0 -4 11 -3 14 5 9
7 -4 12 -2 12 3 0 6 -4 11 -9 11 -5 0 -16 3 -24 6 -8 3 -17 1 -20 -4z"/>
<path d="M925 3750 c3 -5 8 -10 11 -10 2 0 4 5 4 10 0 6 -5 10 -11 10 -5 0 -7
-4 -4 -10z"/>
<path d="M1355 3740 c3 -6 1 -10 -5 -10 -7 0 -23 -8 -36 -19 -23 -18 -23 -19
-4 -24 10 -3 25 1 31 9 10 12 9 13 -6 8 -13 -5 -16 -4 -11 4 9 14 46 16 46 2
0 -5 -9 -14 -21 -21 l-21 -11 21 -14 c12 -9 26 -12 32 -8 6 3 15 0 20 -7 6
-10 9 -10 9 -2 0 7 -9 18 -20 25 -19 12 -28 30 -12 26 12 -4 76 22 69 28 -3 4
-20 2 -36 -4 -25 -9 -31 -8 -31 2 0 8 -7 17 -16 20 -8 3 -12 2 -9 -4z"/>
<path d="M1500 3730 c-13 -9 -13 -10 0 -9 8 0 24 4 35 9 l20 9 -20 0 c-11 0
-27 -4 -35 -9z"/>
<path d="M2085 3720 c-3 -5 -1 -10 4 -10 6 0 11 5 11 10 0 6 -2 10 -4 10 -3 0
-8 -4 -11 -10z"/>
<path d="M715 3701 c-3 -6 4 -9 15 -8 11 1 20 5 20 9 0 11 -28 10 -35 -1z"/>
<path d="M890 3700 c20 -13 33 -13 25 0 -3 6 -14 10 -23 10 -15 0 -15 -2 -2
-10z"/>
<path d="M1460 3695 c0 -2 10 -10 23 -16 20 -11 21 -11 8 4 -13 16 -31 23 -31
12z"/>
<path d="M1543 3688 c-18 -5 -33 -10 -33 -11 0 -6 79 -2 85 4 11 12 -20 16
-52 7z"/>
<path d="M1293 3654 c-17 -13 -17 -14 1 -7 12 4 17 3 13 -4 -4 -6 2 -18 13
-28 24 -22 37 -14 15 9 -9 9 -12 16 -6 16 5 0 13 -5 16 -10 4 -6 11 -8 16 -4
13 8 -6 30 -31 37 -10 3 -27 -1 -37 -9z"/>
<path d="M2210 3659 c0 -5 5 -7 10 -4 6 3 10 8 10 11 0 2 -4 4 -10 4 -5 0 -10
-5 -10 -11z"/>
<path d="M1513 3644 c0 -16 6 -17 25 -5 11 6 9 9 -5 13 -12 3 -20 0 -20 -8z"/>
<path d="M1473 3625 c0 -8 6 -15 13 -15 8 0 11 6 8 15 -4 8 -9 15 -13 15 -4 0
-8 -7 -8 -15z"/>
<path d="M1515 3610 c-3 -5 1 -10 9 -10 9 0 16 5 16 10 0 6 -4 10 -9 10 -6 0
-13 -4 -16 -10z"/>
<path d="M1305 3560 c7 -12 45 -14 45 -2 0 4 -11 9 -26 10 -14 1 -23 -2 -19
-8z"/>
<path d="M2180 3530 c14 -10 27 -17 29 -14 2 2 11 -2 20 -8 9 -7 5 0 -8 15
-14 15 -34 27 -45 27 -20 0 -20 -1 4 -20z"/>
<path d="M616 3523 c-4 -4 -26 -6 -49 -5 -28 2 -38 0 -28 -6 8 -6 10 -15 6
-23 -5 -8 1 -6 13 5 11 10 27 16 34 13 9 -4 9 -6 1 -6 -7 -1 -29 -12 -49 -26
-20 -14 -40 -22 -45 -19 -5 3 -9 0 -9 -5 0 -14 87 -14 95 0 4 6 17 15 29 20
19 8 18 9 -6 6 -16 -3 -28 0 -28 4 0 9 12 12 40 10 11 0 11 1 2 5 -10 5 -9 9
5 20 10 7 13 14 7 14 -6 0 -14 -3 -18 -7z"/>
<path d="M2328 3523 c7 -3 16 -2 19 1 4 3 -2 6 -13 5 -11 0 -14 -3 -6 -6z"/>
<path d="M508 3473 c7 -3 16 -2 19 1 4 3 -2 6 -13 5 -11 0 -14 -3 -6 -6z"/>
<path d="M465 3461 c6 -11 4 -13 -8 -8 -25 9 -21 2 11 -19 26 -17 27 -17 12 1
-8 10 -13 20 -12 22 2 3 0 8 -4 11 -4 4 -3 1 1 -7z"/>
<path d="M643 3453 c9 -2 23 -2 30 0 6 3 -1 5 -18 5 -16 0 -22 -2 -12 -5z"/>
<path d="M583 3430 c-18 -11 -41 -17 -50 -14 -17 5 -17 5 0 -6 9 -6 22 -8 27
-5 6 3 10 2 10 -3 0 -18 -31 -22 -46 -7 -19 19 -22 19 -42 -2 -16 -16 -16 -16
1 -10 10 4 27 2 37 -3 21 -11 73 7 64 22 -3 5 5 17 18 28 30 25 22 25 -19 0z"/>
<path d="M2336 3433 c22 -22 58 -43 71 -43 11 1 -25 28 -62 47 l-30 15 21 -19z"/>
<path d="M407 3429 c7 -7 15 -10 18 -7 3 3 -2 9 -12 12 -14 6 -15 5 -6 -5z"/>
<path d="M4011 3404 c0 -11 3 -14 6 -6 3 7 2 16 -1 19 -3 4 -6 -2 -5 -13z"/>
<path d="M440 3400 c-8 -5 -10 -10 -5 -10 6 0 17 5 25 10 8 5 11 10 5 10 -5 0
-17 -5 -25 -10z"/>
<path d="M429 3367 c5 -5 19 -7 32 -5 20 3 19 5 -9 9 -20 3 -29 2 -23 -4z"/>
<path d="M990 3360 c19 -13 30 -13 30 0 0 6 -10 10 -22 10 -19 0 -20 -2 -8
-10z"/>
<path d="M2224 3354 c3 -9 6 -22 6 -31 0 -9 6 -13 14 -10 7 3 19 0 26 -6 9 -9
9 -6 -1 10 -7 12 -17 19 -21 17 -4 -3 -8 4 -8 15 0 12 -5 21 -11 21 -6 0 -8
-7 -5 -16z"/>
<path d="M2452 3363 c-10 -4 -9 -8 4 -18 14 -10 22 -10 36 -1 10 6 18 13 18
16 0 7 -41 8 -58 3z"/>
<path d="M460 3330 c20 -13 33 -13 25 0 -3 6 -14 10 -23 10 -15 0 -15 -2 -2
-10z"/>
<path d="M712 3334 c10 -9 58 -12 58 -3 0 5 -14 9 -32 9 -17 0 -29 -3 -26 -6z"/>
<path d="M2430 3330 c0 -6 7 -10 15 -10 8 0 15 2 15 4 0 2 -7 6 -15 10 -8 3
-15 1 -15 -4z"/>
<path d="M550 3320 c-9 -6 -10 -10 -3 -10 6 0 15 5 18 10 8 12 4 12 -15 0z"/>
<path d="M890 3309 c0 -5 5 -7 10 -4 6 3 10 8 10 11 0 2 -4 4 -10 4 -5 0 -10
-5 -10 -11z"/>
<path d="M2240 3286 c0 -7 9 -21 20 -31 16 -14 20 -15 20 -4 0 8 -9 22 -20 32
-15 12 -20 13 -20 3z"/>
<path d="M557 3279 c7 -7 15 -10 18 -7 3 3 -2 9 -12 12 -14 6 -15 5 -6 -5z"/>
<path d="M2381 3281 c-11 -7 -11 -10 0 -17 15 -9 82 -13 73 -4 -3 3 -16 5 -27
5 -12 0 -21 6 -19 13 2 14 -7 15 -27 3z"/>
<path d="M2132 3270 c5 -16 48 -46 48 -34 0 5 -12 18 -27 28 -16 12 -24 14
-21 6z"/>
<path d="M2548 3273 c7 -3 16 -2 19 1 4 3 -2 6 -13 5 -11 0 -14 -3 -6 -6z"/>
<path d="M450 3266 c0 -2 7 -7 16 -10 8 -3 12 -2 9 4 -6 10 -25 14 -25 6z"/>
<path d="M2508 3263 c7 -3 16 -2 19 1 4 3 -2 6 -13 5 -11 0 -14 -3 -6 -6z"/>
<path d="M910 3249 c0 -5 5 -7 10 -4 6 3 10 8 10 11 0 2 -4 4 -10 4 -5 0 -10
-5 -10 -11z"/>
<path d="M498 3243 c7 -3 16 -2 19 1 4 3 -2 6 -13 5 -11 0 -14 -3 -6 -6z"/>
<path d="M2120 3232 c6 -13 14 -21 18 -18 3 4 -2 14 -12 24 -18 16 -18 16 -6
-6z"/>
<path d="M2238 3220 c2 -17 8 -33 14 -36 5 -3 7 7 4 23 -2 15 -5 31 -5 36 -1
4 -5 7 -9 7 -5 0 -7 -14 -4 -30z"/>
<path d="M2476 3238 c7 -11 35 -10 53 1 10 6 3 9 -22 8 -20 0 -34 -5 -31 -9z"/>
<path d="M727 3222 c1 -8 3 -16 3 -18 0 -3 4 -3 9 0 5 3 14 -1 21 -9 7 -8 17
-15 23 -15 5 0 2 9 -8 20 -10 11 -24 20 -31 20 -7 0 -14 3 -17 8 -2 4 -2 1 0
-6z"/>
<path d="M2379 3226 c7 -9 20 -16 28 -16 8 0 11 -4 8 -10 -3 -5 0 -7 8 -4 7 2
26 0 40 -5 15 -6 27 -7 27 -2 0 8 -41 23 -56 20 -4 0 -10 4 -13 9 -3 5 -17 13
-31 17 -22 7 -23 6 -11 -9z"/>
<path d="M2300 3225 c0 -5 5 -17 10 -25 5 -8 10 -10 10 -5 0 6 -5 17 -10 25
-5 8 -10 11 -10 5z"/>
<path d="M620 3196 c0 -2 9 -6 20 -9 11 -3 18 -1 14 4 -5 9 -34 13 -34 5z"/>
<path d="M2390 3185 c0 -4 11 -20 25 -37 14 -16 25 -26 25 -23 0 4 -11 20 -25
37 -14 16 -25 26 -25 23z"/>
<path d="M2620 3186 c0 -2 7 -7 16 -10 8 -3 12 -2 9 4 -6 10 -25 14 -25 6z"/>
<path d="M2200 3155 c13 -14 26 -23 28 -20 6 6 -33 45 -44 45 -4 0 3 -11 16
-25z"/>
<path d="M2433 3168 c2 -7 10 -12 17 -10 7 1 17 -1 24 -5 7 -4 3 0 -7 10 -22
20 -41 23 -34 5z"/>
<path d="M1941 3154 c0 -11 3 -14 6 -6 3 7 2 16 -1 19 -3 4 -6 -2 -5 -13z"/>
<path d="M2245 3146 c10 -14 19 -26 22 -26 7 0 -17 39 -28 46 -6 3 -3 -5 6
-20z"/>
<path d="M2501 3158 c9 -9 34 -20 55 -24 35 -6 38 -6 25 9 -7 9 -23 16 -35 15
-11 0 -30 3 -41 8 -18 7 -19 7 -4 -8z"/>
<path d="M1963 3147 c5 -15 37 -22 37 -9 0 5 -9 12 -21 15 -13 3 -19 1 -16 -6z"/>
<path d="M1896 3135 c4 -8 11 -15 16 -15 6 0 5 6 -2 15 -7 8 -14 15 -16 15 -2
0 -1 -7 2 -15z"/>
<path d="M2611 3134 c6 -8 17 -14 24 -14 8 0 15 -4 17 -9 2 -5 17 -3 33 5 19
9 22 12 7 8 -15 -4 -22 -1 -20 8 2 8 -9 13 -35 14 -30 1 -35 -1 -26 -12z"/>
<path d="M2030 3111 c-15 -28 -12 -35 6 -17 8 9 21 13 27 9 7 -4 6 1 -2 10
-17 21 -18 21 -31 -2z"/>
<path d="M2102 3100 c-1 -17 2 -39 8 -50 8 -16 8 -18 -4 -14 -9 3 -14 10 -13
16 1 5 -7 16 -19 24 -20 14 -20 13 -16 -18 3 -18 7 -28 9 -21 3 7 14 2 30 -13
30 -28 43 -30 43 -9 0 24 18 17 34 -12 8 -16 15 -23 15 -18 0 16 -38 82 -39
67 0 -23 -20 -2 -20 22 0 12 -6 30 -13 40 -11 15 -13 14 -15 -14z"/>
<path d="M1990 3111 c0 -5 5 -13 10 -16 6 -3 10 -2 10 4 0 5 -4 13 -10 16 -5
3 -10 2 -10 -4z"/>
<path d="M2471 3117 c2 -1 13 -9 24 -17 19 -14 19 -14 6 3 -7 9 -18 17 -24 17
-6 0 -8 -1 -6 -3z"/>
<path d="M2798 3113 c7 -3 16 -2 19 1 4 3 -2 6 -13 5 -11 0 -14 -3 -6 -6z"/>
<path d="M2545 3100 c4 -6 11 -8 16 -5 5 4 9 1 9 -5 0 -6 5 -8 11 -4 8 4 7 9
-2 15 -19 12 -42 11 -34 -1z"/>
<path d="M2695 3100 c-17 -7 -17 -9 -2 -9 9 -1 20 -1 24 -2 4 0 9 4 11 10 4
13 -5 13 -33 1z"/>
<path d="M2192 3086 c7 -8 15 -12 17 -11 5 6 -10 25 -20 25 -5 0 -4 -6 3 -14z"/>
<path d="M2735 3080 c-6 -9 14 -14 43 -11 7 1 11 -4 10 -10 -2 -7 5 -15 15
-17 16 -3 16 -1 -4 22 -23 27 -53 34 -64 16z"/>
<path d="M2005 3059 c10 -35 23 -45 18 -15 -3 15 -10 29 -15 32 -6 4 -7 -2 -3
-17z"/>
<path d="M2654 3064 c3 -9 6 -18 6 -21 0 -3 7 0 15 7 13 11 13 15 3 21 -21 13
-31 10 -24 -7z"/>
<path d="M2180 3052 c6 -13 14 -21 18 -18 3 4 -2 14 -12 24 -18 16 -18 16 -6
-6z"/>
<path d="M2525 3046 c17 -14 40 -29 53 -32 12 -3 22 -9 22 -13 0 -4 11 -8 26
-9 14 -1 23 2 19 8 -3 6 -11 10 -17 10 -6 0 -17 8 -25 18 -8 9 -12 11 -8 5 9
-18 2 -16 -52 13 l-48 26 30 -26z"/>
<path d="M2487 3038 c7 -8 9 -19 5 -23 -4 -5 1 -5 10 -2 10 3 20 2 23 -3 4 -6
12 -10 18 -10 13 1 -14 24 -48 42 -17 10 -18 9 -8 -4z"/>
<path d="M2406 3026 c3 -8 13 -17 22 -21 13 -5 13 -2 -3 15 -21 24 -26 25 -19
6z"/>
<path d="M2835 3000 c3 -5 8 -10 11 -10 2 0 4 5 4 10 0 6 -5 10 -11 10 -5 0
-7 -4 -4 -10z"/>
<path d="M2080 2988 c0 -8 6 -23 14 -33 13 -18 14 -18 9 8 -6 29 -23 48 -23
25z"/>
<path d="M2505 2977 c9 -15 14 -31 10 -37 -3 -5 1 -10 9 -10 8 0 18 -5 22 -12
5 -7 3 -8 -7 -3 -10 6 -9 3 2 -11 9 -10 22 -34 30 -51 13 -32 29 -44 29 -22 0
5 4 8 9 5 9 -6 26 22 22 37 -1 5 3 6 9 2 5 -3 10 -1 10 4 0 6 9 11 19 11 11 0
23 4 26 10 3 6 -1 7 -10 4 -8 -4 -23 0 -32 7 -12 10 -15 10 -9 2 10 -18 -9
-16 -24 1 -6 8 -19 12 -28 9 -13 -5 -14 -3 -6 6 9 9 21 10 48 3 20 -6 36 -9
36 -8 0 14 -91 59 -119 60 -20 0 -42 5 -50 10 -8 5 -7 0 4 -17z"/>
<path d="M2631 2976 c2 -1 20 -13 39 -26 l34 -24 -19 25 c-10 14 -27 26 -38
26 -11 1 -18 1 -16 -1z"/>
<path d="M2193 2932 c-1 -26 1 -31 7 -17 7 20 7 20 14 -2 10 -30 32 -47 42
-32 5 8 3 9 -6 4 -9 -5 -10 -2 -6 11 4 13 -3 29 -19 47 -14 15 -27 27 -28 27
-1 0 -3 -17 -4 -38z"/>
<path d="M3017 2919 c17 -19 19 -28 11 -42 -9 -17 -8 -18 11 -8 29 16 26 26
-11 52 l-33 23 22 -25z"/>
<path d="M2290 2900 c6 -11 13 -20 16 -20 2 0 0 9 -6 20 -6 11 -13 20 -16 20
-2 0 0 -9 6 -20z"/>
<path d="M2985 2880 c-3 -5 -2 -10 4 -10 5 0 13 5 16 10 3 6 2 10 -4 10 -5 0
-13 -4 -16 -10z"/>
<path d="M2250 2851 c0 -5 5 -13 10 -16 6 -3 10 -2 10 4 0 5 -4 13 -10 16 -5
3 -10 2 -10 -4z"/>
<path d="M10 2780 c-8 -5 -12 -11 -10 -14 3 -2 14 2 24 10 22 15 10 19 -14 4z"/>
<path d="M3105 2780 c7 -11 45 -33 45 -26 0 2 -7 12 -16 20 -17 18 -39 22 -29
6z"/>
<path d="M7 2713 c3 -7 6 -13 8 -13 2 0 5 6 8 13 3 8 -1 14 -8 14 -7 0 -11 -6
-8 -14z"/>
<path d="M3113 2715 c0 -9 4 -14 9 -13 5 2 10 8 10 13 0 5 -5 11 -10 13 -5 1
-9 -4 -9 -13z"/>
<path d="M3156 2712 c-2 -4 4 -9 15 -9 11 -1 17 2 14 8 -7 11 -22 12 -29 1z"/>
<path d="M2040 984 c36 -7 139 -10 128 -2 -7 4 -42 7 -78 7 -36 -1 -58 -3 -50
-5z"/>
<path d="M1290 929 c-85 -4 -252 -13 -370 -19 -118 -6 -325 -13 -460 -16 -135
-3 -270 -10 -300 -16 -129 -24 -129 -24 5 -32 72 -4 186 -12 255 -19 69 -6
152 -11 185 -11 441 4 1026 2 1160 -4 176 -7 352 -3 780 20 347 18 1273 9
1260 -13 -4 -5 9 -9 27 -10 31 -1 32 -1 8 -9 -14 -4 -43 -8 -64 -9 -22 -1 -37
-4 -33 -7 3 -4 120 -6 259 -6 307 1 756 28 778 47 8 7 52 16 98 20 l82 7 0 32
0 33 -337 6 c-187 4 -428 2 -538 -3 -110 -6 -342 -18 -515 -27 -360 -18 -976
-19 -1052 -1 -38 9 -50 9 -64 -3 -11 -9 -15 -9 -10 -1 5 8 -1 12 -18 12 -14 0
-26 -6 -26 -12 0 -8 -3 -9 -8 -3 -4 6 -18 16 -31 23 -47 27 -705 40 -1071 21z
m180 -29 c0 -5 -15 -10 -32 -9 -28 0 -30 2 -13 9 28 12 45 12 45 0z m-240 -10
c0 -5 -4 -10 -10 -10 -5 0 -10 5 -10 10 0 6 5 10 10 10 6 0 10 -4 10 -10z
m557 -26 c-3 -3 -12 -4 -19 -1 -8 3 -5 6 6 6 11 1 17 -2 13 -5z"/>
<path d="M585 783 c16 -3 32 -8 35 -13 3 -4 34 -4 70 1 35 5 69 7 75 5 5 -2 0
-5 -13 -5 -31 -1 -64 -20 -57 -32 4 -5 1 -9 -4 -9 -6 0 -11 4 -11 9 0 16 -38
19 -59 5 -10 -8 -28 -13 -38 -12 -10 2 -61 -1 -113 -5 -52 -5 -166 -10 -252
-12 -86 -1 -162 -6 -168 -10 -18 -11 0 -25 35 -25 19 0 37 -4 40 -10 3 -5 18
-10 33 -10 15 0 49 -8 75 -17 38 -14 52 -15 67 -5 14 9 31 9 67 1 26 -6 62
-11 78 -10 23 0 26 -2 15 -9 -8 -5 -41 -10 -72 -10 -31 0 -64 -3 -72 -6 -25
-10 0 -34 35 -34 24 0 29 -4 29 -23 0 -19 8 -24 53 -34 28 -6 75 -17 102 -23
29 -7 113 -12 203 -11 129 2 153 -1 158 -14 3 -8 13 -15 21 -15 8 0 11 -4 8
-10 -3 -5 -20 -10 -36 -10 -18 0 -28 -4 -24 -10 3 -5 15 -10 26 -10 12 0 17
-4 13 -11 -3 -6 0 -15 7 -20 7 -4 10 -11 6 -15 -13 -13 -360 -33 -584 -33
-137 -1 -213 -5 -213 -11 0 -6 12 -10 28 -9 40 2 512 -12 547 -17 17 -2 180
-6 363 -9 250 -5 332 -3 327 5 -5 9 11 10 61 6 38 -3 130 -10 204 -14 74 -5
142 -12 150 -15 8 -3 267 -8 575 -12 566 -6 952 -17 1190 -36 72 -6 415 -13
763 -16 l632 -6 0 31 0 30 -162 7 c-90 4 -480 5 -868 2 -974 -7 -1009 -7
-1037 4 -13 5 -160 18 -326 29 -197 12 -314 24 -337 33 -23 10 -97 17 -215 21
-203 8 -308 15 -314 22 -2 2 10 4 27 4 39 0 43 20 5 21 -16 1 -3 5 29 10 31 4
301 10 600 13 298 3 578 9 621 15 42 6 212 11 378 12 262 1 302 -1 312 -14 11
-14 50 -15 362 -8 193 4 392 6 442 3 152 -7 483 8 483 23 0 8 -30 14 -97 18
-54 3 -114 12 -133 20 -26 10 -89 14 -239 15 -244 2 -278 8 -213 41 20 10 111
15 352 21 179 4 326 8 328 9 1 0 2 6 2 11 0 6 -22 10 -50 10 -46 0 -67 13 -37
23 37 12 -301 18 -1073 17 -779 -1 -1122 7 -1182 26 -10 3 -57 9 -105 14 -131
14 -173 21 -169 29 3 4 19 6 35 5 17 -1 31 2 31 7 0 5 -3 9 -7 9 -5 0 -77 7
-161 15 -96 9 -274 15 -475 15 -177 1 -410 5 -517 10 -237 11 -707 20 -665 13z
m362 -28 c0 -8 -4 -15 -9 -15 -4 0 -8 4 -8 9 0 5 -10 12 -22 14 -18 3 -16 5 8
6 21 1 31 -4 31 -14z m501 -27 c-7 -20 -48 -23 -48 -4 0 11 9 16 26 16 16 0
24 -5 22 -12z m767 -8 c3 -5 -1 -10 -9 -10 -9 0 -16 5 -16 10 0 6 4 10 9 10 6
0 13 -4 16 -10z m105 -10 c0 -13 -40 -13 -60 0 -11 7 -5 10 23 10 20 0 37 -4
37 -10z m-1037 -47 c-7 -2 -21 -2 -30 0 -10 3 -4 5 12 5 17 0 24 -2 18 -5z
m1447 -33 c-10 -6 -11 -10 -2 -10 22 0 13 -16 -20 -33 -33 -17 -32 -17 57 -12
486 26 525 27 541 14 11 -9 41 -12 95 -10 93 3 114 -2 116 -28 2 -22 -16 -25
-231 -41 -119 -9 -140 -8 -150 4 -9 13 -38 14 -191 7 -104 -4 -194 -4 -213 1
-19 5 -40 7 -48 4 -8 -3 -14 0 -14 7 0 9 -11 11 -37 8 l-38 -5 35 -6 c29 -5
22 -8 -43 -14 -80 -9 -114 -25 -55 -27 32 -1 32 -1 -9 -11 -30 -6 -40 -13 -36
-23 7 -20 -38 -20 -97 1 -30 10 -90 16 -185 18 -78 1 -146 6 -152 9 -19 12 -2
47 26 53 14 4 37 13 51 20 14 7 34 16 45 19 l20 7 -20 8 c-15 7 -10 9 23 9 23
1 42 -3 42 -7 0 -4 33 -5 73 -1 39 4 106 8 147 9 71 2 143 15 110 21 -22 3 67
16 125 17 36 1 46 -1 35 -8z m-1515 -20 c11 -5 14 -9 7 -9 -7 -1 -10 -5 -7
-11 4 -6 -11 -10 -37 -10 -37 0 -44 3 -44 20 0 16 7 20 31 19 16 0 39 -4 50
-9z m2433 -77 c-10 -2 -26 -2 -35 0 -10 3 -2 5 17 5 19 0 27 -2 18 -5z m-1795
-20 c-7 -2 -21 -2 -30 0 -10 3 -4 5 12 5 17 0 24 -2 18 -5z m-3 -23 c0 -5 -17
-10 -37 -10 -28 0 -34 3 -23 10 20 13 60 13 60 0z m-210 -30 c0 -5 -17 -10
-37 -9 -31 0 -34 2 -18 9 28 12 55 12 55 0z m0 -31 c0 -4 -18 -10 -41 -14 -29
-5 -39 -11 -35 -21 4 -10 -3 -14 -27 -14 -31 -1 -106 -6 -177 -13 -36 -4 -76
14 -62 27 4 4 7 13 7 19 0 7 22 14 50 17 74 8 285 7 285 -1z m-185 -99 c-72
-5 -88 -4 -81 8 2 4 37 5 78 2 l73 -4 -70 -6z"/>
<path d="M3481 68 c-107 -10 -196 -20 -199 -22 -2 -3 6 -14 17 -25 21 -21 23
-21 841 -21 l820 0 0 24 c0 28 27 26 -710 56 -325 14 -542 10 -769 -12z"/>
<path d="M1850 66 c-3 -3 -74 -6 -159 -7 -106 -1 -156 -5 -164 -14 -8 -8 -21
-10 -42 -4 -23 7 -33 5 -41 -6 -10 -14 -12 -14 -18 0 -5 14 -25 15 -153 10
-82 -3 -173 -8 -203 -11 -30 -4 -71 -8 -90 -10 -19 -2 -95 -6 -169 -8 -262 -9
-138 -16 277 -15 320 0 422 3 422 12 0 9 2 9 8 -1 11 -17 1303 -13 1309 5 2 6
-9 14 -26 18 -72 15 -938 44 -951 31z"/>
</g>
</svg>
